<svg width="416" height="414" fill="none" xmlns="http://www.w3.org/2000/svg">
  <path fill-rule="evenodd" clip-rule="evenodd" d="M183.86 274.43 180 268l-3.86-6.43h-.01l-.01.01.05-.03.33-.21a34.62 34.62 0 0 0 5.57-4.7c3.2-3.35 5.43-7.2 5.43-11.14h15c0 9.56-5.26 16.96-9.57 21.49a49.57 49.57 0 0 1-8.76 7.25l-.2.12-.07.04-.02.02h-.01Zm-7.75-12.85Z" fill="#000"/>
  <path fill-rule="evenodd" clip-rule="evenodd" d="M227.03 289.06a9 9 0 0 1 7.91 9.97l-8.75 75.6a9 9 0 0 1-4.42 6.75l-28.25 16.4c-4.3 2.5-8.54-.62-13.02-2.78-5.22-2.52-.32-10.29 3.98-12.78l24.35-14.15 8.23-71.1a9 9 0 0 1 9.97-7.91ZM266.58 307.24a9 9 0 0 1 6.68 10.84l-16 67.5a9 9 0 0 1-2.09 3.96l-19 21c-3.33 3.68-7.74 3.17-12.67 1.96-8-1.96-4-10.35-.67-14.04l17.45-19.28 15.46-65.26a9 9 0 0 1 10.84-6.68Z" fill="#371212"/>
  <path fill-rule="evenodd" clip-rule="evenodd" d="M123 18a18 18 0 0 1 18-18h16c4.04 0 7.76 1.33 10.76 3.57 5.41 2.58 10.05 6.88 13.95 11.67 4.97 6.1 9.27 13.68 12.92 21.48 5.2 11.15 9.3 23.3 12.12 33.53a68.85 68.85 0 0 1 25.3 53.4c0 15.94-5.4 30.62-14.5 42.3 8.97 5.93 19.82 14.31 26.7 23.77l.1.15a61.37 61.37 0 0 1 12.03-4.73c25.46-7 46.9-7.64 65.19-2.73 18.38 4.93 32.78 15.24 44.4 28.78 22.33 26 35.08 64.87 47.35 102.28l2.28 6.93-3.35 3.86c-54.9 63.28-165.32 62.48-208-26.71-4.2-8.79-5.75-18.12-5.39-27.3-22.81-14.75-34.13-34.47-49.93-71.17l8.12-6.45H133.5a68.99 68.99 0 0 1-17.02-135.86 125.2 125.2 0 0 0-9.12-21.78c-1.5-2.74-3.09-5.3-4.73-7.57a17.91 17.91 0 0 1-15.72 9.31H76.16a17.92 17.92 0 0 1 0-35.83H86.9c4.76 0 9.1 1.86 12.3 4.9a35.59 35.59 0 0 1 9.84 7.47c4.1 4.3 7.64 9.6 10.6 15a140.5 140.5 0 0 1 10.84 26.45c1-.05 2-.07 3-.07h29.57a68.8 68.8 0 0 1 25.71 4.95 182.87 182.87 0 0 0-6.83-16.95 99.39 99.39 0 0 0-9.14-16.02A18 18 0 0 1 157 36h-16a18 18 0 0 1-18-18Z" fill="#000"/>
  <path d="M104.7 247.49c.27-2.93-.48-5.75-2.3-7.78-3.73-4.16-10.57-3.46-15.28 1.56l-.58.63a79.6 79.6 0 0 0-5.5 6.28c-5.65 5.04-8.39 13.4-6.4 21.7 2.75 11.39 13.42 18.32 23.83 15.48 10.41-2.84 16.63-14.38 13.88-25.78a21.68 21.68 0 0 0-7.64-12.1Z" fill="#fff"/>
  <path fill-rule="evenodd" clip-rule="evenodd" d="m98.06 249.49.49-5.09c.12-1.28-.27-1.78-.38-1.9-.09-.09-.45-.43-1.57-.33a7.35 7.35 0 0 0-4.31 2.27l-6.37-6.35c5.77-5.8 14.17-6.6 18.75-1.8 2.24 2.34 3.16 5.58 2.84 8.96a24.89 24.89 0 0 1 9.39 13.95c3.37 13.14-4.26 26.46-17.05 29.74-12.78 3.27-25.88-4.72-29.25-17.87a24.63 24.63 0 0 1 7.85-25.02 94.02 94.02 0 0 1 7.47-7.97l6.37 6.36-.73.73a85.93 85.93 0 0 0-6.1 6.52l-.55.69-.68.57c-4.3 3.6-6.5 9.7-4.91 15.88 2.2 8.57 10.55 13.37 18.3 11.39 7.74-1.99 12.75-10.23 10.56-18.79a15.89 15.89 0 0 0-6-8.92l-4.12-3.02Z" fill="#000"/>
  <path d="M90.03 145.44a9.72 9.72 0 0 1 13.75 0l51.48 51.48a9.73 9.73 0 0 1 0 13.75l-51.48 51.48a9.72 9.72 0 0 1-13.75 0l-51.48-51.48a9.72 9.72 0 0 1 0-13.75l51.48-51.48Z" fill="#418F39"/>
  <path fill-rule="evenodd" clip-rule="evenodd" d="m155.14 203.8-58.23-58.24-58.24 58.23 58.24 58.24 58.23-58.24Zm-50.46-66.02a11 11 0 0 0-15.55 0l-58.24 58.24a11 11 0 0 0 0 15.55l58.24 58.24a11 11 0 0 0 15.55 0l58.24-58.24a11 11 0 0 0 0-15.55l-58.24-58.24Z" fill="#000"/>
  <path fill-rule="evenodd" clip-rule="evenodd" d="M50.87 190.8c.34-3.5-.6-6.88-2.94-9.3-4.78-4.98-13.56-4.13-19.6 1.9-.26.24-.5.5-.76.75a98.38 98.38 0 0 0-7.07 7.54 25.56 25.56 0 0 0-8.24 26c3.5 13.66 17.17 21.94 30.54 18.52 13.36-3.43 21.36-17.28 17.86-30.93a25.74 25.74 0 0 0-9.79-14.47Z" fill="#fff"/>
  <path fill-rule="evenodd" clip-rule="evenodd" d="m43.33 192.18.42-4.96c.18-2.06-.42-3.33-1.04-4-.57-.62-1.55-1.12-3.2-.97-1.7.16-3.93 1.06-5.96 3.14l-.85.88c-2.65 2.72-5.26 5.4-7.28 8l-.56.7-.68.59c-5.5 4.72-8.37 12.85-6.23 21.22 2.99 11.63 13.99 17.96 23.83 15.44 9.84-2.53 16.43-13.37 13.45-25a21.79 21.79 0 0 0-7.93-12.05l-3.97-3ZM27.1 179.12l-.85.87c-2.58 2.64-5.54 5.68-7.93 8.73-8.16 7-12.06 18.68-9.08 30.3C13.34 235 28.9 244.8 44 240.93c15.11-3.87 24.04-19.96 19.94-35.94a30.8 30.8 0 0 0-11.23-17c.35-4.1-.76-8.05-3.43-10.9-5.46-5.86-15.4-4.95-22.19 2.03Z" fill="#000"/>
  <path fill-rule="evenodd" clip-rule="evenodd" d="M148.3 188.75c-.42-3.93.65-7.69 3.3-10.39 5.4-5.53 15.4-4.53 22.32 2.24l.87.84c2.62 2.57 5.64 5.51 8.08 8.47a28.48 28.48 0 1 1-34.58-1.16Z" fill="#fff"/>
  <path fill-rule="evenodd" clip-rule="evenodd" d="m155.26 190.16-.54-5.22c-.24-2.34.43-3.82 1.26-4.67 1.48-1.52 7.06-2.96 12.84 2.7l1 .97 6.29-6.44-1-.96c-7.91-7.75-19.36-8.9-25.57-2.57-3.02 3.1-4.24 7.4-3.77 11.9a32.61 32.61 0 1 0 39.6 1.33c-2.8-3.39-6.25-6.76-9.26-9.7l-6.29 6.44c3.08 3.01 6.17 6.04 8.6 8.99l.56.67.68.56a23.62 23.62 0 1 1-28.67-.96l4.27-3.04Z" fill="#000"/>
  <circle cx="101.35" cy="88.94" r="9.03" fill="#fff"/>
  <circle cx="141.49" cy="88.94" r="9.03" fill="#fff"/>
  <path fill-rule="evenodd" clip-rule="evenodd" d="M155.57 268.2a8.62 8.62 0 0 1 .12-7.5c2.52-4.73 9.42-6.06 15.41-2.97l.75.39c2.28 1.17 4.89 2.5 7.12 3.97a19.6 19.6 0 0 1 12.23 17.3c.44 10.84-8.11 19.97-19.1 20.42-11 .45-20.26-7.96-20.7-18.78-.2-4.82 1.38-9.3 4.17-12.83Z" fill="#fff"/>
  <path fill-rule="evenodd" clip-rule="evenodd" d="m162.61 267.47-2.05-4.88a2.9 2.9 0 0 1-.26-1.1c0-.2.04-.3.07-.35.01-.03.27-.51 1.5-.75a8 8 0 0 1 5.06.92l.9.48h.01a87.41 87.41 0 0 1 7.8 4.36l.72.48.8.34a14.91 14.91 0 0 1 9.27 13.15 15.02 15.02 0 0 1-14.5 15.53 15.02 15.02 0 0 1-15.72-14.3 14.71 14.71 0 0 1 3.14-9.72l3.26-4.16Zm-10.2-10.54c-1.48 2.81-1.43 6.1-.15 9.15a23.7 23.7 0 0 0-5.04 15.65 24.02 24.02 0 0 0 25.07 22.9 24.02 24.02 0 0 0 23.13-24.88 23.91 23.91 0 0 0-14.82-21.1c-2.7-1.79-5.86-3.43-8.62-4.85l-.9-.47c-7.27-3.78-15.62-2.16-18.67 3.6Z" fill="#000"/>
  <path d="M72 177a1 1 0 0 0-1 1v48.35c0 5.62 2.87 10.68 7.27 12.82 4.4 2.15 9.46.97 12.83-3l48.8-57.52a1 1 0 0 0-.77-1.65h-30.68a1 1 0 0 0-.76.35L96.3 190.76a1 1 0 0 1-1.76-.64V178a1 1 0 0 0-1-1H72Z" fill="#fff"/>
  <path d="M325.4 274.16c7.1-26.75 6.72-51.79 4.64-69.99-.2-1.76-.4-3.31-.6-4.7-9.17-5.12-19.77-8.42-32.21-9.47.14.67.24 1.2.3 1.41 1.02 4.35 1.81 8.36 2.7 16.17 1.8 15.7 2.05 36.77-3.82 58.88-5.77 21.72-17.5 40.22-28.14 53.5-4.6 5.75-8.9 10.4-12.27 13.81 9.33 5.57 19.35 9.6 29.67 12.13 1.93-2.2 3.95-4.6 6.02-7.19 12.18-15.2 26.5-37.42 33.71-64.55Z" fill="#8A594D"/>
</svg>
