<svg width="322" height="322" viewBox="0 0 322 322" fill="none" xmlns="http://www.w3.org/2000/svg">
<g clip-path="url(#clip0_15:3)">
<rect width="322" height="322" rx="161" fill="#34D01A"/>
<path d="M29.566 168.798C29.3793 169.421 29.1225 169.965 28.7957 170.432C28.4689 170.884 28.1032 171.273 27.6986 171.599C27.294 171.926 26.8582 172.191 26.3914 172.393C25.9401 172.595 25.4888 172.759 25.0375 172.883C23.9637 173.163 22.8199 173.288 21.6061 173.257C20.6723 173.272 19.902 173.179 19.2951 172.977C18.6882 172.759 18.198 172.518 17.8245 172.253C17.3888 171.957 17.0386 171.623 16.7741 171.249C16.5406 170.86 16.3617 170.424 16.2372 169.942C16.1282 169.46 16.0504 168.977 16.0037 168.495C15.9571 167.997 15.9337 167.514 15.9337 167.048C15.9337 166.565 15.9337 166.122 15.9337 165.717C15.9337 164.892 15.9571 164.137 16.0037 163.453C16.0504 162.752 16.1127 162.146 16.1905 161.632C16.2527 161.025 16.3383 160.48 16.4473 159.998C16.5251 159.516 16.6574 159.095 16.8441 158.737C17.0308 158.38 17.2409 158.076 17.4744 157.827C17.7233 157.563 17.9801 157.345 18.2447 157.173C18.5248 157.002 18.8049 156.87 19.085 156.777C19.7231 156.543 20.4311 156.442 21.2092 156.473C21.9562 156.473 22.6409 156.528 23.2634 156.637C23.8859 156.73 24.4461 156.862 24.9441 157.033C25.4421 157.189 25.8856 157.376 26.2747 157.594C26.6793 157.812 27.0372 158.029 27.3484 158.247C28.0643 158.776 28.6245 159.375 29.0291 160.045C29.4182 160.714 29.7061 161.484 29.8928 162.356C29.9706 162.729 30.0329 163.149 30.0796 163.616C30.1418 164.067 30.1651 164.565 30.1496 165.11C30.134 165.655 30.0796 166.238 29.9862 166.861C29.9084 167.468 29.7683 168.114 29.566 168.798ZM23.1 164.036C22.8355 164.036 22.6098 164.106 22.4231 164.246C22.2519 164.371 22.1663 164.628 22.1663 165.017C22.1663 165.39 22.2519 165.631 22.4231 165.74C22.6098 165.834 22.8355 165.88 23.1 165.88C23.3646 165.88 23.5824 165.803 23.7536 165.647C23.9248 165.491 24.0104 165.281 24.0104 165.017C24.0104 164.768 23.9326 164.542 23.777 164.34C23.6213 164.137 23.3957 164.036 23.1 164.036ZM38.9637 156.403C39.8352 156.434 40.59 156.497 41.228 156.59C41.8816 156.683 42.4418 156.808 42.9087 156.963C43.3911 157.103 43.7879 157.259 44.0992 157.43C44.4104 157.601 44.6594 157.78 44.8462 157.967C45.2975 158.387 45.5153 158.854 45.4998 159.368C45.4998 159.835 45.4142 160.239 45.243 160.582C45.0718 160.908 44.8462 161.188 44.566 161.422C44.2859 161.655 43.9591 161.842 43.5856 161.982C43.2122 162.122 42.8309 162.231 42.4418 162.309C41.5237 162.48 40.481 162.535 39.3139 162.472C40.2009 162.628 40.8701 162.846 41.3214 163.126C41.7727 163.39 42.0839 163.655 42.2551 163.92C42.4574 164.231 42.543 164.573 42.5119 164.947C42.5119 165.398 42.3952 165.779 42.1617 166.09C41.9439 166.386 41.6871 166.627 41.3914 166.814C41.0957 167.001 40.8156 167.141 40.5511 167.234C40.2865 167.312 40.1153 167.359 40.0375 167.374C40.7534 167.374 41.3836 167.413 41.9283 167.491C42.473 167.569 42.9398 167.678 43.3289 167.818C43.7335 167.958 44.0603 168.121 44.3093 168.308C44.5738 168.479 44.7917 168.658 44.9629 168.845C45.3519 169.281 45.5465 169.779 45.5465 170.339C45.5153 170.712 45.4064 171.039 45.2197 171.319C45.0329 171.584 44.7917 171.817 44.496 172.02C44.2159 172.222 43.8891 172.393 43.5156 172.533C43.1421 172.658 42.7686 172.767 42.3952 172.86C41.5081 173.062 40.4966 173.171 39.3606 173.187C38.5047 173.218 37.7499 173.187 37.0963 173.093C36.4427 173 35.8669 172.876 35.3689 172.72C34.8709 172.564 34.443 172.385 34.0851 172.183C33.7271 171.981 33.4315 171.771 33.198 171.553C32.6378 171.039 32.2877 170.456 32.1476 169.802C31.9453 168.775 31.8286 167.701 31.7974 166.581C31.7819 165.445 31.8052 164.402 31.8675 163.453C31.9297 162.348 32.0387 161.258 32.1943 160.185C32.2877 159.656 32.4511 159.197 32.6845 158.807C32.9335 158.403 33.2214 158.061 33.5482 157.78C33.8905 157.5 34.2562 157.275 34.6453 157.103C35.0499 156.917 35.4545 156.777 35.8591 156.683C36.7928 156.45 37.8277 156.356 38.9637 156.403ZM47.8333 160.115C47.989 159.446 48.2535 158.839 48.627 158.294C48.9382 157.827 49.374 157.399 49.9342 157.01C50.51 156.605 51.257 156.38 52.1751 156.333C52.9688 156.302 53.6535 156.411 54.2293 156.66C54.8051 156.909 55.2875 157.236 55.6766 157.64C56.0656 158.045 56.3691 158.496 56.5869 158.994C56.8204 159.477 56.9993 159.951 57.1238 160.418C57.2483 160.885 57.3261 161.297 57.3573 161.655C57.4039 162.013 57.4351 162.262 57.4506 162.402C57.4506 161.624 57.4973 160.947 57.5907 160.371C57.6996 159.78 57.8397 159.274 58.0109 158.854C58.182 158.418 58.3766 158.061 58.5944 157.78C58.8279 157.5 59.0613 157.275 59.2947 157.103C59.8394 156.699 60.4619 156.497 61.1622 156.497C61.8936 156.481 62.4771 156.613 62.9129 156.893C63.3642 157.158 63.7065 157.461 63.94 157.804C64.2201 158.208 64.4068 158.66 64.5002 159.158C64.7648 160.527 64.897 161.834 64.897 163.079C64.897 164.309 64.8581 165.406 64.7803 166.371C64.6714 167.491 64.5158 168.549 64.3135 169.545C64.2045 170.043 64.0645 170.479 63.8933 170.852C63.7377 171.21 63.5587 171.522 63.3564 171.786C63.1697 172.035 62.9674 172.245 62.7495 172.416C62.5316 172.572 62.3215 172.697 62.1192 172.79C61.6212 173.008 61.1077 173.093 60.5786 173.047C59.7694 173.062 59.0691 172.922 58.4777 172.627C57.8864 172.315 57.3806 171.926 56.9604 171.459C56.5403 170.993 56.1901 170.479 55.91 169.919C55.6454 169.343 55.4276 168.798 55.2564 168.285C55.1008 167.771 54.9918 167.32 54.9296 166.931C54.8673 166.542 54.8284 166.285 54.8129 166.161C54.8596 167.11 54.8362 167.935 54.7428 168.635C54.665 169.335 54.5405 169.934 54.3694 170.432C54.1982 170.93 53.9959 171.343 53.7624 171.669C53.5446 171.996 53.3111 172.253 53.0622 172.44C52.4864 172.891 51.8172 173.093 51.0547 173.047C50.3855 173.078 49.8408 172.961 49.4207 172.697C49.0005 172.416 48.6737 172.113 48.4402 171.786C48.1601 171.397 47.9578 170.954 47.8333 170.456C47.5377 169.226 47.3665 168.005 47.3198 166.791C47.2887 165.561 47.312 164.449 47.3898 163.453C47.4676 162.301 47.6155 161.188 47.8333 160.115ZM74.9402 156.567C75.8739 156.567 76.6909 156.683 77.3912 156.917C78.107 157.135 78.7295 157.43 79.2586 157.804C79.7877 158.177 80.2312 158.605 80.5892 159.088C80.9471 159.554 81.2428 160.037 81.4762 160.535C82.0209 161.702 82.3321 163.017 82.4099 164.48C82.4099 165.585 82.301 166.557 82.0831 167.398C81.8652 168.222 81.5773 168.946 81.2194 169.569C80.8771 170.176 80.4802 170.689 80.0289 171.109C79.5932 171.529 79.1419 171.88 78.675 172.16C77.5857 172.798 76.3407 173.163 74.9402 173.257C73.8819 173.257 72.956 173.148 72.1624 172.93C71.3687 172.697 70.6762 172.401 70.0848 172.043C69.4935 171.669 68.9955 171.249 68.5909 170.782C68.1863 170.3 67.8517 169.81 67.5871 169.312C66.9647 168.16 66.6145 166.845 66.5367 165.367C66.5367 164.153 66.6534 163.103 66.8868 162.216C67.1358 161.329 67.4549 160.566 67.8439 159.928C68.2485 159.274 68.6998 158.745 69.1978 158.341C69.6958 157.92 70.2093 157.586 70.7384 157.337C71.9678 156.761 73.3684 156.504 74.9402 156.567ZM74.59 164.06C74.3255 164.06 74.092 164.161 73.8897 164.363C73.703 164.565 73.6252 164.791 73.6563 165.04C73.6874 165.367 73.7808 165.593 73.9364 165.717C74.1076 165.841 74.3255 165.904 74.59 165.904C74.8546 165.904 75.0724 165.826 75.2436 165.67C75.4148 165.515 75.5004 165.305 75.5004 165.04C75.5004 164.791 75.4226 164.565 75.267 164.363C75.1113 164.161 74.8857 164.06 74.59 164.06ZM99.4047 162.192C99.4358 163.048 99.358 163.795 99.1712 164.433C98.9845 165.056 98.7277 165.593 98.4009 166.044C98.0741 166.48 97.6929 166.837 97.2571 167.118C96.837 167.398 96.4012 167.616 95.9499 167.771C94.8917 168.16 93.6857 168.308 92.3318 168.215C92.4563 168.79 92.5185 169.296 92.5185 169.732C92.5185 170.168 92.4718 170.549 92.3784 170.876C92.2851 171.203 92.1606 171.483 92.005 171.716C91.8493 171.934 91.6782 172.121 91.4914 172.276C91.0557 172.634 90.5188 172.852 89.8807 172.93C88.9626 173.023 88.2001 172.907 87.5931 172.58C86.9862 172.253 86.5038 171.872 86.1459 171.436C85.7257 170.922 85.3989 170.331 85.1655 169.662C84.8075 168.448 84.6052 167.289 84.5586 166.184C84.5274 165.079 84.5663 164.099 84.6753 163.243C84.7998 162.262 84.9943 161.336 85.2588 160.465C85.4611 159.858 85.7179 159.337 86.0292 158.901C86.356 158.45 86.6983 158.068 87.0563 157.757C87.4297 157.43 87.8188 157.173 88.2234 156.987C88.628 156.784 89.0248 156.621 89.4139 156.497C90.332 156.216 91.3047 156.107 92.3318 156.17C93.2032 156.201 93.9658 156.31 94.6194 156.497C95.2885 156.683 95.8643 156.924 96.3467 157.22C96.8447 157.5 97.2649 157.819 97.6073 158.177C97.9496 158.535 98.2375 158.901 98.471 159.274C98.9845 160.13 99.2957 161.103 99.4047 162.192ZM92.2851 161.725C92.0205 161.725 91.7871 161.827 91.5848 162.029C91.398 162.231 91.3202 162.457 91.3514 162.706C91.3825 163.033 91.4759 163.258 91.6315 163.383C91.8027 163.507 92.0205 163.569 92.2851 163.569C92.5496 163.569 92.7675 163.492 92.9387 163.336C93.1099 163.18 93.1954 162.97 93.1954 162.706C93.1954 162.457 93.1176 162.231 92.962 162.029C92.8064 161.827 92.5808 161.725 92.2851 161.725ZM107.582 162.262C108.453 162.387 109.216 162.55 109.869 162.752C110.523 162.955 111.083 163.188 111.55 163.453C112.033 163.717 112.429 163.997 112.741 164.293C113.052 164.589 113.309 164.884 113.511 165.18C113.978 165.865 114.219 166.612 114.235 167.421C114.235 168.121 114.149 168.744 113.978 169.288C113.807 169.833 113.573 170.308 113.278 170.712C112.997 171.101 112.671 171.436 112.297 171.716C111.939 171.981 111.573 172.206 111.2 172.393C110.313 172.813 109.301 173.062 108.165 173.14C107.294 173.202 106.524 173.202 105.854 173.14C105.185 173.078 104.602 172.977 104.104 172.837C103.621 172.681 103.209 172.502 102.867 172.3C102.54 172.097 102.275 171.88 102.073 171.646C101.559 171.117 101.287 170.495 101.256 169.779C101.256 169.265 101.326 168.829 101.466 168.471C101.606 168.114 101.801 167.818 102.05 167.584C102.299 167.335 102.579 167.141 102.89 167.001C103.217 166.845 103.543 166.729 103.87 166.651C104.648 166.48 105.535 166.456 106.531 166.581C105.847 166.425 105.255 166.231 104.757 165.997C104.275 165.748 103.863 165.476 103.52 165.18C103.178 164.869 102.898 164.55 102.68 164.223C102.477 163.896 102.314 163.577 102.19 163.266C101.909 162.519 101.816 161.725 101.909 160.885C101.987 160.309 102.12 159.803 102.306 159.368C102.509 158.932 102.742 158.558 103.007 158.247C103.271 157.936 103.551 157.679 103.847 157.477C104.158 157.259 104.469 157.088 104.781 156.963C105.512 156.668 106.314 156.52 107.185 156.52C108.632 156.458 109.776 156.535 110.616 156.753C111.472 156.956 112.11 157.228 112.531 157.57C112.966 157.913 113.231 158.294 113.324 158.714C113.433 159.119 113.472 159.492 113.441 159.835C113.394 160.224 113.278 160.558 113.091 160.838C112.904 161.103 112.671 161.329 112.39 161.515C112.11 161.702 111.791 161.858 111.433 161.982C111.091 162.091 110.741 162.169 110.383 162.216C109.543 162.356 108.609 162.371 107.582 162.262Z" fill="white"/>
<path d="M248.768 199.531C248.768 199.531 281.052 217.606 287.525 242.073C293.998 266.54 280.637 304.991 280.637 304.991L222.978 322.415C184.077 296.196 189.908 252.862 195.406 221.02L248.768 199.531Z" fill="black"/>
<rect x="121.43" y="99.6613" width="158.371" height="130.424" rx="65.2118" fill="black"/>
<rect x="115.502" y="48.8469" width="44.0391" height="33.8762" rx="16.9381" fill="black"/>
<rect x="176.72" y="48" width="49.1537" height="34.0295" rx="17.0147" fill="black"/>
<rect x="152.053" y="178.237" width="88.2504" height="88.2504" rx="5.19895" transform="rotate(45 152.053 178.237)" fill="#418F39" stroke="black" stroke-width="10.3979"/>
<mask id="path-8-inside-1_15:3" fill="white">
<path fill-rule="evenodd" clip-rule="evenodd" d="M108.283 221.804C108.725 217.553 107.574 213.485 104.713 210.561C98.8501 204.571 88.0273 205.655 80.5394 212.984C80.234 213.283 79.922 213.587 79.6047 213.897C76.7599 216.673 73.4938 219.86 70.8526 223.06C61.8743 230.426 57.4584 242.578 60.5333 254.569C64.7625 271.061 81.5603 281.002 98.0523 276.773C114.544 272.544 124.485 255.746 120.256 239.254C118.375 231.917 114.006 225.877 108.283 221.804Z"/>
</mask>
<path fill-rule="evenodd" clip-rule="evenodd" d="M108.283 221.804C108.725 217.553 107.574 213.485 104.713 210.561C98.8501 204.571 88.0273 205.655 80.5394 212.984C80.234 213.283 79.922 213.587 79.6047 213.897C76.7599 216.673 73.4938 219.86 70.8526 223.06C61.8743 230.426 57.4584 242.578 60.5333 254.569C64.7625 271.061 81.5603 281.002 98.0523 276.773C114.544 272.544 124.485 255.746 120.256 239.254C118.375 231.917 114.006 225.877 108.283 221.804Z" fill="white"/>
<path d="M104.713 210.561L110.793 204.611L110.793 204.611L104.713 210.561ZM108.283 221.804L99.8214 220.925L99.3088 225.859L103.35 228.735L108.283 221.804ZM80.5394 212.984L74.5889 206.904L80.5394 212.984ZM79.6047 213.897L73.6631 207.808L73.6631 207.808L79.6047 213.897ZM70.8526 223.06L76.2485 229.637L76.8874 229.113L77.4134 228.476L70.8526 223.06ZM98.6327 216.512C99.4167 217.313 100.051 218.72 99.8214 220.925L116.745 222.683C117.399 216.386 115.731 209.657 110.793 204.611L98.6327 216.512ZM86.4899 219.064C91.9561 213.714 97.2269 215.075 98.6327 216.512L110.793 204.611C100.473 194.066 84.0986 197.597 74.5889 206.904L86.4899 219.064ZM85.5464 219.985C85.8629 219.677 86.1794 219.368 86.4899 219.064L74.5889 206.904C74.2887 207.197 73.9812 207.498 73.6631 207.808L85.5464 219.985ZM77.4134 228.476C79.711 225.692 82.6339 222.828 85.5464 219.985L73.6631 207.808C70.8858 210.518 67.2767 214.028 64.2917 217.644L77.4134 228.476ZM68.774 252.456C66.5509 243.787 69.7314 234.984 76.2485 229.637L65.4566 216.483C54.0172 225.868 48.3659 241.37 52.2926 256.682L68.774 252.456ZM95.939 268.532C83.9983 271.594 71.8361 264.397 68.774 252.456L52.2926 256.682C57.6888 277.725 79.1223 290.41 100.165 285.014L95.939 268.532ZM112.015 241.367C115.077 253.308 107.88 265.47 95.939 268.532L100.165 285.014C121.209 279.617 133.893 258.184 128.497 237.141L112.015 241.367ZM103.35 228.735C107.497 231.687 110.651 236.048 112.015 241.367L128.497 237.141C126.098 227.786 120.514 220.067 113.216 214.873L103.35 228.735Z" fill="black" mask="url(#path-8-inside-1_15:3)"/>
<mask id="path-10-inside-2_15:3" fill="white">
<path fill-rule="evenodd" clip-rule="evenodd" d="M198.241 223.695C197.799 219.443 198.95 215.375 201.811 212.452C207.674 206.461 218.497 207.546 225.985 214.874C226.29 215.173 226.602 215.478 226.919 215.787C229.764 218.563 233.03 221.751 235.672 224.95C244.65 232.316 249.066 244.469 245.991 256.46C241.762 272.952 224.964 282.893 208.472 278.663C191.98 274.434 182.039 257.636 186.268 241.144C188.149 233.808 192.518 227.768 198.241 223.695Z"/>
</mask>
<path fill-rule="evenodd" clip-rule="evenodd" d="M198.241 223.695C197.799 219.443 198.95 215.375 201.811 212.452C207.674 206.461 218.497 207.546 225.985 214.874C226.29 215.173 226.602 215.478 226.919 215.787C229.764 218.563 233.03 221.751 235.672 224.95C244.65 232.316 249.066 244.469 245.991 256.46C241.762 272.952 224.964 282.893 208.472 278.663C191.98 274.434 182.039 257.636 186.268 241.144C188.149 233.808 192.518 227.768 198.241 223.695Z" fill="white"/>
<path d="M201.811 212.452L207.891 218.402L207.891 218.402L201.811 212.452ZM198.241 223.695L206.703 222.815L207.215 227.749L203.174 230.626L198.241 223.695ZM225.985 214.874L231.935 208.794L231.935 208.794L225.985 214.874ZM226.919 215.787L220.978 221.876L220.978 221.876L226.919 215.787ZM235.672 224.95L230.276 231.528L229.637 231.003L229.111 230.366L235.672 224.95ZM207.891 218.402C207.107 219.203 206.474 220.61 206.703 222.815L189.779 224.574C189.125 218.277 190.793 211.547 195.731 206.501L207.891 218.402ZM220.034 220.954C214.568 215.605 209.297 216.966 207.891 218.402L195.731 206.501C206.051 195.957 222.426 199.487 231.935 208.794L220.034 220.954ZM220.978 221.876C220.661 221.567 220.345 221.258 220.034 220.954L231.935 208.794C232.235 209.088 232.543 209.388 232.861 209.699L220.978 221.876ZM229.111 230.366C226.813 227.583 223.89 224.718 220.978 221.876L232.861 209.699C235.638 212.409 239.248 215.919 242.233 219.535L229.111 230.366ZM237.75 254.346C239.973 245.677 236.793 236.874 230.276 231.528L241.068 218.373C252.507 227.758 258.158 243.26 254.232 258.573L237.75 254.346ZM210.585 270.423C222.526 273.485 234.688 266.287 237.75 254.346L254.232 258.573C248.835 279.616 227.402 292.3 206.359 286.904L210.585 270.423ZM194.509 243.258C191.447 255.198 198.644 267.361 210.585 270.423L206.359 286.904C185.315 281.508 172.631 260.074 178.027 239.031L194.509 243.258ZM203.174 230.626C199.027 233.577 195.873 237.939 194.509 243.258L178.027 239.031C180.426 229.677 186.01 221.958 193.308 216.764L203.174 230.626Z" fill="black" mask="url(#path-10-inside-2_15:3)"/>
<circle cx="156.255" cy="132.072" r="8.53687" fill="white"/>
<circle cx="194.197" cy="132.072" r="8.53687" fill="white"/>
<path d="M178.546 105.526C174.91 91.2974 163.654 61.8927 147.718 58.0985" stroke="black" stroke-width="13.2337" stroke-linejoin="round"/>
<path d="M252.058 126.4C247.471 105.342 233.271 61.8233 213.168 56.208" stroke="black" stroke-width="13.2337" stroke-linejoin="round"/>
<path fill-rule="evenodd" clip-rule="evenodd" d="M123.945 214C123.423 214 123 214.423 123 214.945V260.65C123 265.956 125.712 270.74 129.87 272.771C134.029 274.802 138.816 273.679 141.999 269.927L188.12 215.557C188.641 214.943 188.205 214 187.399 214H158.399C158.122 214 157.858 214.122 157.679 214.334L146.925 227.01C146.356 227.682 145.259 227.279 145.259 226.399V214.945C145.259 214.423 144.836 214 144.314 214H123.945Z" fill="white"/>
<path d="M101 273.5L111.5 266L121 279L101 273.5Z" fill="black"/>
</g>
<defs>
<clipPath id="clip0_15:3">
<rect width="322" height="322" rx="161" fill="white"/>
</clipPath>
</defs>
</svg>
