<svg width="416" height="414" viewBox="0 0 416 414" fill="none" xmlns="http://www.w3.org/2000/svg">
<path fill-rule="evenodd" clip-rule="evenodd" d="M227.034 289.06C231.972 289.631 235.512 294.097 234.94 299.034L226.195 374.627C225.869 377.448 224.23 379.949 221.774 381.375L193.52 397.783C189.221 400.279 184.976 397.162 180.5 395C175.283 392.48 180.182 384.713 184.48 382.217L208.833 368.075L217.06 296.966C217.631 292.028 222.097 288.488 227.034 289.06Z" fill="#371212"/>
<path fill-rule="evenodd" clip-rule="evenodd" d="M266.576 307.243C271.412 308.389 274.404 313.239 273.257 318.076L257.257 385.576C256.908 387.051 256.191 388.414 255.174 389.538L236.174 410.538C232.839 414.224 228.431 413.709 223.5 412.5C215.5 410.538 219.491 402.148 222.826 398.462L240.276 379.175L255.743 313.924C256.889 309.088 261.739 306.096 266.576 307.243Z" fill="#371212"/>
<mask id="path-3-inside-1_16:5" fill="white">
<path fill-rule="evenodd" clip-rule="evenodd" d="M107.507 245.25C107.828 241.869 106.912 238.626 104.675 236.285C100.091 231.487 91.692 232.293 85.9158 238.085C85.6802 238.321 85.4395 238.562 85.1948 238.807C83.0001 241.001 80.4806 243.52 78.4463 246.052C71.5131 251.866 68.1479 261.513 70.5988 271.07C73.9698 284.216 87.0666 292.215 99.8513 288.936C112.636 285.658 120.267 272.344 116.896 259.198C115.397 253.35 111.972 248.521 107.507 245.25Z"/>
</mask>
<path fill-rule="evenodd" clip-rule="evenodd" d="M107.507 245.25C107.828 241.869 106.912 238.626 104.675 236.285C100.091 231.487 91.692 232.293 85.9158 238.085C85.6802 238.321 85.4395 238.562 85.1948 238.807C83.0001 241.001 80.4806 243.52 78.4463 246.052C71.5131 251.866 68.1479 261.513 70.5988 271.07C73.9698 284.216 87.0666 292.215 99.8513 288.936C112.636 285.658 120.267 272.344 116.896 259.198C115.397 253.35 111.972 248.521 107.507 245.25Z" fill="white"/>
<path d="M104.675 236.285L111.182 230.067L111.182 230.067L104.675 236.285ZM107.507 245.25L98.5471 244.4L98.0643 249.489L102.188 252.51L107.507 245.25ZM85.9157 238.085L92.2884 244.44L92.2884 244.44L85.9157 238.085ZM85.1947 238.807L78.8314 232.442L78.8314 232.442L85.1947 238.807ZM78.4463 246.052L84.2292 252.948L84.9079 252.379L85.4627 251.689L78.4463 246.052ZM98.168 242.502C98.2837 242.623 98.668 243.125 98.5471 244.4L116.467 246.1C116.987 240.614 115.541 234.629 111.182 230.067L98.168 242.502ZM92.2884 244.44C93.8127 242.912 95.4485 242.283 96.6023 242.173C97.7153 242.066 98.0822 242.412 98.168 242.502L111.182 230.067C101.911 220.364 87.5343 223.717 79.5431 231.73L92.2884 244.44ZM91.558 245.171C91.8019 244.927 92.0473 244.682 92.2884 244.44L79.5431 231.73C79.313 231.96 79.0771 232.196 78.8314 232.442L91.558 245.171ZM85.4627 251.689C87.1354 249.606 89.2926 247.436 91.558 245.171L78.8314 232.442C76.7075 234.565 73.8256 237.433 71.4299 240.416L85.4627 251.689ZM79.3167 268.835C77.7327 262.658 79.9298 256.554 84.2292 252.948L72.6633 239.156C63.0963 247.178 58.563 260.368 61.8809 273.306L79.3167 268.835ZM97.6156 280.218C89.8728 282.204 81.5121 277.396 79.3167 268.835L61.8809 273.306C66.4275 291.036 84.2603 302.226 102.087 297.654L97.6156 280.218ZM108.178 261.434C110.374 269.995 105.358 278.233 97.6156 280.218L102.087 297.654C119.913 293.083 130.161 274.692 125.614 256.962L108.178 261.434ZM102.188 252.51C105.015 254.581 107.209 257.653 108.178 261.434L125.614 256.962C123.584 249.047 118.93 242.461 112.825 237.989L102.188 252.51Z" fill="black" mask="url(#path-3-inside-1_16:5)"/>
<path fill-rule="evenodd" clip-rule="evenodd" d="M133.496 54.6528C95.3952 54.6528 64.5082 85.5398 64.5082 123.641C64.5082 161.742 95.3952 192.629 133.496 192.629H157.052L148.93 199.083C164.732 235.782 176.049 255.5 198.863 270.249C198.504 279.431 200.049 288.761 204.252 297.545C246.93 386.735 357.347 387.542 412.251 324.256L415.596 320.401L414.004 315.552L413.32 313.467C401.049 276.057 388.299 237.188 365.977 211.192C354.351 197.652 339.95 187.335 321.57 182.406C303.285 177.503 281.836 178.138 256.383 185.142C252.139 186.31 248.123 187.907 244.35 189.868L244.243 189.72C237.372 180.26 226.525 171.883 217.556 165.952C226.641 154.268 232.05 139.586 232.05 123.641C232.05 85.5398 201.163 54.6528 163.062 54.6528H133.496Z" fill="black"/>
<rect x="96.9051" y="137.778" width="93.3606" height="93.3606" rx="5.5" transform="rotate(45 96.9051 137.778)" fill="#418F39" stroke="black" stroke-width="11"/>
<mask id="path-7-inside-2_16:5" fill="white">
<path fill-rule="evenodd" clip-rule="evenodd" d="M52.7196 187.986C53.0718 183.887 51.9619 179.944 49.2944 177.085C43.8285 171.226 33.8922 172.136 27.1012 179.117C26.8243 179.402 26.5413 179.692 26.2535 179.987C23.6733 182.632 20.711 185.668 18.3234 188.724C10.1627 195.723 6.25729 207.401 9.23641 219.018C13.3338 234.997 28.9032 244.809 44.0115 240.934C59.1197 237.06 68.0458 220.966 63.9484 204.988C62.1256 197.88 58.0325 191.992 52.7196 187.986Z"/>
</mask>
<path fill-rule="evenodd" clip-rule="evenodd" d="M52.7196 187.986C53.0718 183.887 51.9619 179.944 49.2944 177.085C43.8285 171.226 33.8922 172.136 27.1012 179.117C26.8243 179.402 26.5413 179.692 26.2535 179.987C23.6733 182.632 20.711 185.668 18.3234 188.724C10.1627 195.723 6.25729 207.401 9.23641 219.018C13.3338 234.997 28.9032 244.809 44.0115 240.934C59.1197 237.06 68.0458 220.966 63.9484 204.988C62.1256 197.88 58.0325 191.992 52.7196 187.986Z" fill="white"/>
<path d="M49.2944 177.085L55.8751 170.945L55.8751 170.945L49.2944 177.085ZM52.7196 187.987L43.7526 187.216L43.3265 192.176L47.3016 195.173L52.7196 187.987ZM27.1012 179.117L20.65 172.842L20.65 172.842L27.1012 179.117ZM26.2535 179.987L32.6954 186.272L32.6954 186.272L26.2535 179.987ZM18.3234 188.724L24.1822 195.556L24.8632 194.972L25.4156 194.265L18.3234 188.724ZM42.7136 183.224C43.3345 183.89 43.929 185.164 43.7526 187.216L61.6866 188.757C62.2146 182.611 60.5893 175.998 55.8751 170.945L42.7136 183.224ZM33.5524 185.393C35.58 183.309 37.813 182.405 39.5155 182.249C41.1585 182.098 42.1356 182.605 42.7137 183.224L55.8751 170.945C45.7545 160.098 29.7343 163.503 20.65 172.842L33.5524 185.393ZM32.6954 186.272C32.9823 185.978 33.27 185.683 33.5524 185.393L20.65 172.842C20.3785 173.121 20.1002 173.406 19.8116 173.702L32.6954 186.272ZM25.4156 194.265C27.4443 191.668 30.0453 188.988 32.6954 186.272L19.8116 173.702C17.3012 176.275 13.9777 179.668 11.2311 183.183L25.4156 194.265ZM17.9543 216.783C15.8081 208.413 18.6797 200.275 24.1822 195.556L12.4645 181.892C1.64581 191.17 -3.29357 206.388 0.518489 221.254L17.9543 216.783ZM41.7759 232.217C31.9358 234.74 20.9367 228.413 17.9543 216.783L0.518489 221.254C5.73103 241.581 25.8705 254.878 46.2471 249.652L41.7759 232.217ZM55.2304 207.224C58.2128 218.854 51.6159 229.693 41.7759 232.217L46.2471 249.652C66.6236 244.427 77.8788 223.079 72.6663 202.752L55.2304 207.224ZM47.3016 195.173C51.0051 197.965 53.9208 202.116 55.2304 207.224L72.6663 202.752C70.3304 193.643 65.0598 186.019 58.1376 180.8L47.3016 195.173Z" fill="black" mask="url(#path-7-inside-2_16:5)"/>
<path fill-rule="evenodd" clip-rule="evenodd" d="M145.767 185.868C145.3 181.371 146.517 177.067 149.544 173.974C155.746 167.637 167.196 168.785 175.118 176.537C175.441 176.854 175.771 177.176 176.106 177.503C179.116 180.44 182.571 183.812 185.365 187.197C194.863 194.989 199.535 207.846 196.282 220.531C191.808 237.978 174.038 248.494 156.591 244.02C139.144 239.546 128.627 221.776 133.101 204.329C135.091 196.567 139.713 190.177 145.767 185.868Z" fill="white"/>
<path fill-rule="evenodd" clip-rule="evenodd" d="M155.261 190.158L154.719 184.938C154.476 182.605 155.147 181.117 155.976 180.269C157.464 178.75 163.04 177.31 168.822 182.97C169.151 183.291 169.486 183.618 169.821 183.944L176.106 177.503C175.771 177.176 175.441 176.854 175.118 176.537C167.196 168.785 155.746 167.637 149.544 173.974C146.517 177.067 145.3 181.371 145.767 185.868C139.713 190.177 135.091 196.567 133.101 204.329C128.627 221.776 139.144 239.546 156.591 244.02C174.038 248.494 191.808 237.978 196.282 220.531C199.535 207.846 194.863 194.989 185.365 187.197C182.571 183.812 179.116 180.44 176.106 177.503L169.821 183.944C172.902 186.951 175.994 189.982 178.425 192.926L178.981 193.601L179.657 194.155C186.551 199.811 189.916 209.124 187.564 218.295C184.325 230.927 171.458 238.542 158.826 235.302C146.194 232.063 138.58 219.197 141.819 206.564C143.262 200.938 146.598 196.324 150.986 193.201L155.261 190.158Z" fill="black"/>
<circle cx="101.35" cy="88.9399" r="9.03121" fill="white"/>
<circle cx="141.489" cy="88.9399" r="9.03121" fill="white"/>
<path d="M76.1555 0.89595C66.2592 0.89595 58.2366 8.91854 58.2366 18.8149C58.2366 28.7113 66.2592 36.7338 76.1555 36.7338H86.9069C93.6834 36.7338 99.5813 32.9722 102.626 27.4232C104.273 29.6922 105.86 32.2452 107.365 34.9934C112.584 44.5216 116.334 55.485 118.15 62.5898L131.714 59.1235C129.683 51.1764 125.555 39.06 119.644 28.2679C116.686 22.8671 113.158 17.5706 109.049 13.2661C106.229 10.3117 102.952 7.63433 99.2147 5.7915C96.0046 2.75675 91.673 0.89595 86.9069 0.89595H76.1555Z" fill="black"/>
<path d="M141 0C131.059 0 123 8.05888 123 18C123 27.9411 131.059 36 141 36H157C163.815 36 169.745 32.2128 172.801 26.6283C176.054 31.1233 179.125 36.6139 181.942 42.6468C188.688 57.0958 193.514 73.6541 195.861 84.4298L209.54 81.45C207.035 69.9487 201.923 52.349 194.628 36.7241C190.982 28.9153 186.676 21.349 181.706 15.2414C177.807 10.4489 173.174 6.15475 167.764 3.57205C164.762 1.32848 161.036 0 157 0H141Z" fill="black"/>
<path fill-rule="evenodd" clip-rule="evenodd" d="M152.265 266.082C150.978 263.022 150.925 259.742 152.412 256.93C155.459 251.169 163.814 249.555 171.074 253.327C171.37 253.481 171.672 253.637 171.98 253.796C174.736 255.223 177.901 256.861 180.6 258.648C188.985 262.115 195.028 270.157 195.42 279.754C195.959 292.954 185.606 304.095 172.295 304.639C158.984 305.183 147.756 294.924 147.216 281.725C146.976 275.853 148.892 270.388 152.265 266.082Z" fill="white"/>
<path fill-rule="evenodd" clip-rule="evenodd" d="M162.612 267.468L160.561 262.593C160.343 262.074 160.296 261.696 160.298 261.482C160.299 261.289 160.337 261.196 160.368 261.137L160.368 261.137C160.383 261.108 160.637 260.628 161.869 260.39C163.123 260.148 164.973 260.299 166.925 261.313L166.925 261.313C167.226 261.47 167.533 261.629 167.838 261.787L167.842 261.789L167.842 261.789C170.687 263.262 173.407 264.68 175.631 266.153L176.357 266.633L177.162 266.966C182.455 269.154 186.185 274.191 186.427 280.122C186.761 288.284 180.344 295.303 171.927 295.647C163.511 295.991 156.542 289.519 156.209 281.357C156.06 277.709 157.241 274.325 159.35 271.632L162.612 267.468ZM152.412 256.93C150.925 259.742 150.978 263.022 152.265 266.082C148.892 270.388 146.976 275.853 147.216 281.725C147.756 294.924 158.984 305.183 172.295 304.639C185.606 304.095 195.959 292.954 195.42 279.754C195.028 270.157 188.985 262.115 180.6 258.648C177.901 256.861 174.736 255.223 171.98 253.796L171.977 253.795C171.671 253.636 171.369 253.48 171.074 253.327C163.814 249.555 155.459 251.169 152.412 256.93Z" fill="black"/>
<path d="M68.0001 176C67.4478 176 67.0001 176.448 67.0001 177V225.351C67.0001 230.965 69.8687 236.026 74.2684 238.174C78.668 240.323 83.7322 239.135 87.0996 235.165L135.891 177.647C136.442 176.997 135.981 176 135.129 176H104.449C104.156 176 103.877 176.129 103.687 176.353L92.3107 189.764C91.7085 190.474 90.5481 190.048 90.5481 189.117V177C90.5481 176.448 90.1004 176 89.5481 176H68.0001Z" fill="white"/>
<path d="M325.402 274.156C332.505 247.406 332.122 222.37 330.042 204.175C329.84 202.406 329.641 200.858 329.439 199.475C320.275 194.354 309.665 191.048 297.23 190C297.366 190.673 297.474 191.196 297.526 191.414C298.545 195.763 299.343 199.772 300.236 207.582C302.03 223.278 302.278 244.348 296.407 266.456C290.637 288.182 278.91 306.677 268.274 319.963C263.674 325.709 259.367 330.369 256 333.775C265.333 339.343 275.348 343.369 285.673 345.899C287.604 343.695 289.625 341.296 291.693 338.711C303.869 323.502 318.197 301.287 325.402 274.156Z" fill="#8A594D"/>
<path fill-rule="evenodd" clip-rule="evenodd" d="M183.863 274.429C183.861 274.43 183.859 274.431 180 268C176.141 261.569 176.139 261.57 176.137 261.571L176.127 261.577L176.119 261.583C176.117 261.584 176.116 261.584 176.115 261.585L176.116 261.584C176.122 261.581 176.14 261.569 176.171 261.55C176.232 261.511 176.343 261.441 176.495 261.34C176.8 261.137 177.268 260.815 177.844 260.383C179.008 259.509 180.55 258.235 182.069 256.64C185.264 253.285 187.5 249.438 187.5 245.5H202.5C202.5 255.062 197.236 262.465 192.931 266.985C190.7 269.327 188.492 271.147 186.844 272.383C186.014 273.005 185.31 273.492 184.795 273.834C184.537 274.006 184.325 274.142 184.166 274.241C184.087 274.291 184.021 274.332 183.97 274.364L183.903 274.404L183.878 274.419L183.868 274.426L183.863 274.429ZM176.115 261.585C176.115 261.585 176.115 261.585 176.115 261.585Z" fill="black"/>
</svg>
