<svg width="322" height="322" fill="none" xmlns="http://www.w3.org/2000/svg">
  <circle cx="161" cy="161" r="161" fill="#33D01A"/>
  <path d="M24.57 164.8a5.66 5.66 0 0 1-3.18 3.6c-.45.2-.9.36-1.35.48-1.08.28-2.22.4-3.43.38-.94.01-1.7-.08-2.31-.28-.61-.22-1.1-.46-1.48-.73-.43-.3-.78-.63-1.05-1a4.91 4.91 0 0 1-.53-1.3 11.65 11.65 0 0 1-.3-2.9v-1.33a33.51 33.51 0 0 1 .25-4.09c.06-.6.15-1.15.26-1.63a4.15 4.15 0 0 1 1.8-2.83 5.49 5.49 0 0 1 2.96-.7 11.94 11.94 0 0 1 3.73.56 7 7 0 0 1 1.33.56c.4.22.77.44 1.08.66a6.3 6.3 0 0 1 2.54 4.1 12.12 12.12 0 0 1 .26 2.76 14.68 14.68 0 0 1-.58 3.69Zm-6.47-4.76c-.26 0-.49.07-.68.2-.17.13-.25.39-.25.78 0 .37.08.61.25.72.19.1.42.14.68.14.26 0 .48-.08.65-.23a.81.81 0 0 0 .26-.63c0-.25-.08-.48-.23-.68a.8.8 0 0 0-.68-.3Zm15.86-7.64c.88.03 1.63.1 2.27.19a9.75 9.75 0 0 1 2.87.84c.31.17.56.35.75.54.45.42.67.88.65 1.4 0 .47-.09.87-.26 1.21-.17.33-.4.6-.67.84-.28.24-.61.42-.98.56a7.4 7.4 0 0 1-1.15.33c-.92.17-1.96.22-3.13.16.9.16 1.56.38 2.01.66.45.26.76.53.94.79.2.31.28.65.25 1.03 0 .45-.11.83-.35 1.14-.22.3-.47.54-.77.72a4.2 4.2 0 0 1-1.35.56c.71 0 1.34.04 1.89.12.54.08 1.01.19 1.4.33.4.14.73.3.98.49.26.17.48.35.65.53.4.44.59.94.59 1.5-.03.37-.14.7-.33.98-.19.26-.43.5-.72.7-.28.2-.61.37-.98.51-.38.13-.75.24-1.12.33-.9.2-1.9.31-3.04.33a12.82 12.82 0 0 1-4-.47c-.49-.16-.92-.34-1.27-.54-.36-.2-.66-.4-.9-.63a3.3 3.3 0 0 1-1.04-1.75c-.2-1.03-.32-2.1-.35-3.22a39.75 39.75 0 0 1 .4-6.4 4.02 4.02 0 0 1 2.45-3.08c.4-.18.8-.32 1.2-.42.94-.23 1.98-.32 3.11-.28Zm8.87 3.72a4.9 4.9 0 0 1 2.1-3.1 4.2 4.2 0 0 1 2.25-.69 4.41 4.41 0 0 1 4.41 2.66 8.03 8.03 0 0 1 .77 2.66l.1.75c0-.78.04-1.45.13-2.03.11-.59.25-1.1.42-1.52.17-.43.37-.79.58-1.07.24-.28.47-.5.7-.68.55-.4 1.17-.6 1.87-.6.73-.02 1.32.11 1.75.4a3.12 3.12 0 0 1 1.59 2.26c.26 1.37.4 2.67.4 3.92a31.06 31.06 0 0 1-.58 6.47 6.44 6.44 0 0 1-.96 2.24c-.19.25-.4.46-.61.63a3.11 3.11 0 0 1-2.17.63 4.47 4.47 0 0 1-3.62-1.6 6.9 6.9 0 0 1-1.05-1.53 10.47 10.47 0 0 1-1.1-3.76c.05.95.03 1.78-.07 2.47-.08.7-.2 1.3-.37 1.8-.17.5-.37.91-.6 1.24a3.1 3.1 0 0 1-.7.77c-.58.45-1.25.65-2.02.6a2.78 2.78 0 0 1-1.63-.34 3.73 3.73 0 0 1-.98-.91 3.85 3.85 0 0 1-.6-1.33c-.3-1.23-.47-2.46-.52-3.67-.03-1.23 0-2.34.07-3.34.08-1.15.23-2.26.44-3.33Zm27.11-3.55a7.74 7.74 0 0 1 4.32 1.23c.53.38.97.8 1.33 1.29.36.46.65.95.89 1.44.54 1.17.85 2.49.93 3.95 0 1.1-.1 2.08-.33 2.92-.21.82-.5 1.55-.86 2.17a7.57 7.57 0 0 1-2.54 2.6 8.4 8.4 0 0 1-3.74 1.09 8.77 8.77 0 0 1-4.86-1.21 6.68 6.68 0 0 1-2.5-2.74 9.21 9.21 0 0 1-1.04-3.94c0-1.22.11-2.27.35-3.15.25-.9.56-1.65.95-2.3a7.02 7.02 0 0 1 2.9-2.6 8.93 8.93 0 0 1 4.2-.75Zm-.35 7.49c-.26 0-.5.1-.7.3a.81.81 0 0 0-.23.68c.03.33.12.55.28.68.17.12.39.18.65.18s.48-.07.65-.23a.8.8 0 0 0 .26-.63c0-.25-.08-.47-.23-.68a.8.8 0 0 0-.68-.3Zm24.81-1.87c.04.86-.04 1.6-.23 2.24a4.4 4.4 0 0 1-1.91 2.69c-.42.28-.86.5-1.31.65a8.69 8.69 0 0 1-3.62.44c.13.58.19 1.09.19 1.52 0 .44-.05.82-.14 1.15-.1.32-.22.6-.38.84-.15.21-.32.4-.5.56a3.93 3.93 0 0 1-3.9.3c-.61-.33-1.1-.7-1.45-1.14a5.79 5.79 0 0 1-.98-1.78 14.46 14.46 0 0 1-.61-3.48 16.85 16.85 0 0 1 .7-5.72 5.87 5.87 0 0 1 2.96-3.47c.4-.2.8-.37 1.2-.5.91-.27 1.88-.38 2.91-.32a9.6 9.6 0 0 1 2.29.33 6.75 6.75 0 0 1 2.99 1.68c.34.35.63.72.86 1.1.51.85.83 1.82.93 2.91Zm-7.11-.47c-.27 0-.5.1-.7.3a.81.81 0 0 0-.24.69c.03.32.13.55.28.67.17.13.4.19.66.19s.48-.08.65-.23a.81.81 0 0 0 .26-.63c0-.25-.08-.48-.24-.68a.8.8 0 0 0-.67-.3Zm15.3.54c.86.13 1.63.29 2.28.5.65.2 1.21.43 1.68.7a5.68 5.68 0 0 1 1.96 1.72c.47.69.7 1.43.72 2.24 0 .7-.08 1.32-.25 1.87a4.86 4.86 0 0 1-2.78 3.1c-.89.42-1.9.67-3.03.75-.88.06-1.65.06-2.32 0a9.9 9.9 0 0 1-1.75-.3c-.48-.16-.9-.34-1.23-.54-.33-.2-.6-.42-.8-.65a2.77 2.77 0 0 1-.81-1.87c0-.52.07-.95.2-1.3a2.81 2.81 0 0 1 1.42-1.47c.34-.17.66-.28.99-.36.78-.17 1.66-.2 2.66-.07a6.3 6.3 0 0 1-3.01-1.4 5.2 5.2 0 0 1-1.33-1.91 5.09 5.09 0 0 1-.28-2.39 4.9 4.9 0 0 1 1.94-3.4c.3-.22.62-.4.93-.52.73-.3 1.53-.44 2.4-.44 1.45-.06 2.6.01 3.44.23.85.2 1.49.48 1.91.82.44.34.7.72.8 1.14.1.4.14.78.11 1.13-.05.38-.16.72-.35 1-.19.26-.42.49-.7.67-.28.2-.6.35-.96.47a10.4 10.4 0 0 1-3.85.28Z" fill="#fff"/>
  <mask id="a" style="mask-type:alpha" maskUnits="userSpaceOnUse" x="0" y="0" width="322" height="322">
    <circle cx="161" cy="161" r="161" fill="#33D01A"/>
    <path d="M24.57 164.8a5.66 5.66 0 0 1-3.18 3.6c-.45.2-.9.36-1.35.48-1.08.28-2.22.4-3.43.38-.94.01-1.7-.08-2.31-.28-.61-.22-1.1-.46-1.48-.73-.43-.3-.78-.63-1.05-1a4.91 4.91 0 0 1-.53-1.3 11.65 11.65 0 0 1-.3-2.9v-1.33a33.51 33.51 0 0 1 .25-4.09c.06-.6.15-1.15.26-1.63a4.15 4.15 0 0 1 1.8-2.83 5.49 5.49 0 0 1 2.96-.7 11.94 11.94 0 0 1 3.73.56 7 7 0 0 1 1.33.56c.4.22.77.44 1.08.66a6.3 6.3 0 0 1 2.54 4.1 12.12 12.12 0 0 1 .26 2.76 14.68 14.68 0 0 1-.58 3.69Zm-6.47-4.76c-.26 0-.49.07-.68.2-.17.13-.25.39-.25.78 0 .37.08.61.25.72.19.1.42.14.68.14.26 0 .48-.08.65-.23a.81.81 0 0 0 .26-.63c0-.25-.08-.48-.23-.68a.8.8 0 0 0-.68-.3Zm15.86-7.64c.88.03 1.63.1 2.27.19a9.75 9.75 0 0 1 2.87.84c.31.17.56.35.75.54.45.42.67.88.65 1.4 0 .47-.09.87-.26 1.21-.17.33-.4.6-.67.84-.28.24-.61.42-.98.56a7.4 7.4 0 0 1-1.15.33c-.92.17-1.96.22-3.13.16.9.16 1.56.38 2.01.66.45.26.76.53.94.79.2.31.28.65.25 1.03 0 .45-.11.83-.35 1.14-.22.3-.47.54-.77.72a4.2 4.2 0 0 1-1.35.56c.71 0 1.34.04 1.89.12.54.08 1.01.19 1.4.33.4.14.73.3.98.49.26.17.48.35.65.53.4.44.59.94.59 1.5-.03.37-.14.7-.33.98-.19.26-.43.5-.72.7-.28.2-.61.37-.98.51-.38.13-.75.24-1.12.33-.9.2-1.9.31-3.04.33a12.82 12.82 0 0 1-4-.47c-.49-.16-.92-.34-1.27-.54-.36-.2-.66-.4-.9-.63a3.3 3.3 0 0 1-1.04-1.75c-.2-1.03-.32-2.1-.35-3.22a39.75 39.75 0 0 1 .4-6.4 4.02 4.02 0 0 1 2.45-3.08c.4-.18.8-.32 1.2-.42.94-.23 1.98-.32 3.11-.28Zm8.87 3.72a4.9 4.9 0 0 1 2.1-3.1 4.2 4.2 0 0 1 2.25-.69 4.41 4.41 0 0 1 4.41 2.66 8.03 8.03 0 0 1 .77 2.66l.1.75c0-.78.04-1.45.13-2.03.11-.59.25-1.1.42-1.52.17-.43.37-.79.58-1.07.24-.28.47-.5.7-.68.55-.4 1.17-.6 1.87-.6.73-.02 1.32.11 1.75.4a3.12 3.12 0 0 1 1.59 2.26c.26 1.37.4 2.67.4 3.92a31.06 31.06 0 0 1-.58 6.47 6.44 6.44 0 0 1-.96 2.24c-.19.25-.4.46-.61.63a3.11 3.11 0 0 1-2.17.63 4.47 4.47 0 0 1-3.62-1.6 6.9 6.9 0 0 1-1.05-1.53 10.47 10.47 0 0 1-1.1-3.76c.05.95.03 1.78-.07 2.47-.08.7-.2 1.3-.37 1.8-.17.5-.37.91-.6 1.24a3.1 3.1 0 0 1-.7.77c-.58.45-1.25.65-2.02.6a2.78 2.78 0 0 1-1.63-.34 3.73 3.73 0 0 1-.98-.91 3.85 3.85 0 0 1-.6-1.33c-.3-1.23-.47-2.46-.52-3.67-.03-1.23 0-2.34.07-3.34.08-1.15.23-2.26.44-3.33Zm27.11-3.55a7.74 7.74 0 0 1 4.32 1.23c.53.38.97.8 1.33 1.29.36.46.65.95.89 1.44.54 1.17.85 2.49.93 3.95 0 1.1-.1 2.08-.33 2.92-.21.82-.5 1.55-.86 2.17a7.57 7.57 0 0 1-2.54 2.6 8.4 8.4 0 0 1-3.74 1.09 8.77 8.77 0 0 1-4.86-1.21 6.68 6.68 0 0 1-2.5-2.74 9.21 9.21 0 0 1-1.04-3.94c0-1.22.11-2.27.35-3.15.25-.9.56-1.65.95-2.3a7.02 7.02 0 0 1 2.9-2.6 8.93 8.93 0 0 1 4.2-.75Zm-.35 7.49c-.26 0-.5.1-.7.3a.81.81 0 0 0-.23.68c.03.33.12.55.28.68.17.12.39.18.65.18s.48-.07.65-.23a.8.8 0 0 0 .26-.63c0-.25-.08-.47-.23-.68a.8.8 0 0 0-.68-.3Zm24.81-1.87c.04.86-.04 1.6-.23 2.24a4.4 4.4 0 0 1-1.91 2.69c-.42.28-.86.5-1.31.65a8.69 8.69 0 0 1-3.62.44c.13.58.19 1.09.19 1.52 0 .44-.05.82-.14 1.15-.1.32-.22.6-.38.84-.15.21-.32.4-.5.56a3.93 3.93 0 0 1-3.9.3c-.61-.33-1.1-.7-1.45-1.14a5.79 5.79 0 0 1-.98-1.78 14.46 14.46 0 0 1-.61-3.48 16.85 16.85 0 0 1 .7-5.72 5.87 5.87 0 0 1 2.96-3.47c.4-.2.8-.37 1.2-.5.91-.27 1.88-.38 2.91-.32a9.6 9.6 0 0 1 2.29.33 6.75 6.75 0 0 1 2.99 1.68c.34.35.63.72.86 1.1.51.85.83 1.82.93 2.91Zm-7.11-.47c-.27 0-.5.1-.7.3a.81.81 0 0 0-.24.69c.03.32.13.55.28.67.17.13.4.19.66.19s.48-.08.65-.23a.81.81 0 0 0 .26-.63c0-.25-.08-.48-.24-.68a.8.8 0 0 0-.67-.3Zm15.3.54c.86.13 1.63.29 2.28.5.65.2 1.21.43 1.68.7a5.68 5.68 0 0 1 1.96 1.72c.47.69.7 1.43.72 2.24 0 .7-.08 1.32-.25 1.87a4.86 4.86 0 0 1-2.78 3.1c-.89.42-1.9.67-3.03.75-.88.06-1.65.06-2.32 0a9.9 9.9 0 0 1-1.75-.3c-.48-.16-.9-.34-1.23-.54-.33-.2-.6-.42-.8-.65a2.77 2.77 0 0 1-.81-1.87c0-.52.07-.95.2-1.3a2.81 2.81 0 0 1 1.42-1.47c.34-.17.66-.28.99-.36.78-.17 1.66-.2 2.66-.07a6.3 6.3 0 0 1-3.01-1.4 5.2 5.2 0 0 1-1.33-1.91 5.09 5.09 0 0 1-.28-2.39 4.9 4.9 0 0 1 1.94-3.4c.3-.22.62-.4.93-.52.73-.3 1.53-.44 2.4-.44 1.45-.06 2.6.01 3.44.23.85.2 1.49.48 1.91.82.44.34.7.72.8 1.14.1.4.14.78.11 1.13-.05.38-.16.72-.35 1-.19.26-.42.49-.7.67-.28.2-.6.35-.96.47a10.4 10.4 0 0 1-3.85.28Z" fill="#fff"/>
  </mask>
  <g mask="url(#a)">
    <path fill-rule="evenodd" clip-rule="evenodd" d="M241.86 319.43 238 313l-3.86-6.43h-.01l-.01.01.05-.03.33-.21a34.62 34.62 0 0 0 5.57-4.7c3.2-3.35 5.43-7.2 5.43-11.14h15c0 9.56-5.26 16.96-9.57 21.49a49.57 49.57 0 0 1-8.76 7.25l-.2.12-.07.04-.02.02h-.01Zm-7.75-12.85Z" fill="#000"/>
    <path fill-rule="evenodd" clip-rule="evenodd" d="M181 63a18 18 0 0 1 18-18h16c4.04 0 7.76 1.33 10.76 3.57 5.41 2.58 10.05 6.88 13.95 11.67 4.97 6.1 9.27 13.68 12.92 21.48 5.2 11.15 9.3 23.3 12.12 33.53a68.85 68.85 0 0 1 25.3 53.4c0 15.94-5.4 30.62-14.5 42.3 8.97 5.93 19.82 14.31 26.7 23.77l.1.15a61.37 61.37 0 0 1 12.03-4.73c25.46-7 46.9-7.64 65.19-2.73 18.38 4.93 32.78 15.24 44.4 28.78 22.33 26 35.08 64.87 47.35 102.28l2.28 6.93-3.35 3.86c-54.9 63.28-165.32 62.48-208-26.71-4.2-8.79-5.75-18.12-5.39-27.3-22.81-14.75-34.13-34.47-49.93-71.17l8.12-6.45H191.5a68.99 68.99 0 0 1-17.02-135.86 125.2 125.2 0 0 0-9.11-21.78c-1.51-2.74-3.1-5.3-4.74-7.57a17.91 17.91 0 0 1-15.72 9.31h-10.75a17.92 17.92 0 1 1 0-35.83h10.75c4.76 0 9.1 1.86 12.3 4.9a35.6 35.6 0 0 1 9.84 7.47c4.1 4.3 7.64 9.6 10.6 15a140.5 140.5 0 0 1 10.84 26.45c1-.05 2-.07 3-.07h29.57c9.09 0 17.77 1.76 25.71 4.95a182.9 182.9 0 0 0-6.83-16.95 99.39 99.39 0 0 0-9.14-16.02A18 18 0 0 1 215 81h-16a18 18 0 0 1-18-18Z" fill="#000"/>
    <path d="M162.7 292.49c.27-2.93-.48-5.75-2.3-7.78-3.73-4.15-10.57-3.46-15.28 1.56l-.59.63c-1.78 1.9-3.83 4.09-5.49 6.28-5.65 5.04-8.39 13.4-6.4 21.7 2.75 11.39 13.42 18.32 23.83 15.48 10.41-2.84 16.63-14.38 13.88-25.78a21.68 21.68 0 0 0-7.64-12.1Z" fill="#fff"/>
    <path fill-rule="evenodd" clip-rule="evenodd" d="m156.06 294.49.49-5.09c.12-1.27-.27-1.78-.38-1.9-.09-.09-.45-.43-1.57-.33a7.36 7.36 0 0 0-4.31 2.27l-6.37-6.36c5.77-5.79 14.17-6.6 18.76-1.8 2.23 2.35 3.15 5.59 2.83 8.97a24.89 24.89 0 0 1 9.39 13.95c3.37 13.14-4.26 26.46-17.05 29.74-12.78 3.27-25.88-4.72-29.25-17.87a24.63 24.63 0 0 1 7.85-25.02 94.1 94.1 0 0 1 6.75-7.24l.72-.73 6.37 6.36-.73.73a85.84 85.84 0 0 0-6.1 6.52l-.55.69-.68.57c-4.3 3.6-6.5 9.7-4.91 15.88 2.2 8.57 10.55 13.37 18.3 11.39 7.74-1.99 12.75-10.23 10.56-18.79a15.89 15.89 0 0 0-6-8.92l-4.12-3.02Z" fill="#000"/>
    <path d="M148.03 190.44a9.73 9.73 0 0 1 13.75 0l51.48 51.48a9.73 9.73 0 0 1 0 13.75l-51.48 51.48a9.73 9.73 0 0 1-13.75 0l-51.48-51.48a9.72 9.72 0 0 1 0-13.75l51.48-51.48Z" fill="#418F39"/>
    <path fill-rule="evenodd" clip-rule="evenodd" d="m213.14 248.8-58.23-58.24-58.24 58.23 58.23 58.24 58.24-58.24Zm-50.46-66.02a11 11 0 0 0-15.55 0l-58.24 58.24a11 11 0 0 0 0 15.55l58.24 58.24a11 11 0 0 0 15.55 0l58.24-58.24a11 11 0 0 0 0-15.55l-58.24-58.24Z" fill="#000"/>
    <path fill-rule="evenodd" clip-rule="evenodd" d="M108.87 235.8c.34-3.5-.6-6.88-2.94-9.3-4.79-4.98-13.56-4.13-19.6 1.9-.26.24-.5.5-.76.75a98.38 98.38 0 0 0-7.07 7.54 25.56 25.56 0 0 0-8.24 26c3.5 13.66 17.17 21.94 30.54 18.52 13.37-3.43 21.36-17.28 17.86-30.93a25.74 25.74 0 0 0-9.79-14.47Z" fill="#fff"/>
    <path fill-rule="evenodd" clip-rule="evenodd" d="m101.33 237.18.42-4.96c.18-2.06-.42-3.33-1.04-4-.57-.62-1.55-1.12-3.2-.97-1.7.16-3.93 1.06-5.96 3.14l-.85.88c-2.65 2.72-5.26 5.4-7.28 8l-.56.7-.68.59c-5.5 4.72-8.37 12.85-6.23 21.22 2.99 11.63 13.99 17.96 23.83 15.44 9.84-2.53 16.43-13.37 13.45-25a21.79 21.79 0 0 0-7.93-12.05l-3.97-3ZM85.1 224.12l-.85.87c-2.58 2.64-5.54 5.68-7.93 8.73-8.16 7-12.06 18.68-9.08 30.3C71.34 280 86.9 289.8 102 285.93c15.11-3.87 24.04-19.96 19.94-35.94a30.8 30.8 0 0 0-11.23-17c.35-4.1-.76-8.05-3.43-10.9-5.46-5.86-15.4-4.95-22.19 2.03Z" fill="#000"/>
    <path fill-rule="evenodd" clip-rule="evenodd" d="M206.3 233.75c-.42-3.93.65-7.69 3.3-10.39 5.4-5.53 15.4-4.53 22.32 2.24l.87.84c2.62 2.57 5.64 5.51 8.08 8.47a28.48 28.48 0 1 1-34.58-1.16Z" fill="#fff"/>
    <path fill-rule="evenodd" clip-rule="evenodd" d="m213.26 235.16-.54-5.22c-.24-2.34.43-3.82 1.26-4.67 1.48-1.52 7.06-2.96 12.84 2.7l1 .97 6.29-6.44-1-.96c-7.91-7.75-19.36-8.9-25.57-2.57-3.02 3.1-4.24 7.4-3.77 11.9a32.61 32.61 0 1 0 39.6 1.33c-2.8-3.39-6.25-6.76-9.26-9.7l-6.29 6.44c3.08 3.01 6.17 6.04 8.6 8.99l.56.67.68.56a23.62 23.62 0 1 1-28.67-.96l4.27-3.04Z" fill="#000"/>
    <circle cx="159.35" cy="133.94" r="9.03" fill="#fff"/>
    <circle cx="199.49" cy="133.94" r="9.03" fill="#fff"/>
    <path fill-rule="evenodd" clip-rule="evenodd" d="M213.57 313.2a8.62 8.62 0 0 1 .12-7.5c2.52-4.74 9.42-6.06 15.41-2.97l.75.39c2.28 1.17 4.89 2.5 7.12 3.97a19.6 19.6 0 0 1 12.23 17.3c.44 10.84-8.11 19.97-19.1 20.42-11 .45-20.26-7.96-20.7-18.78-.2-4.82 1.38-9.3 4.17-12.83Z" fill="#fff"/>
    <path fill-rule="evenodd" clip-rule="evenodd" d="m220.61 312.47-2.05-4.88a2.9 2.9 0 0 1-.26-1.1c0-.2.04-.3.07-.35.01-.03.27-.51 1.5-.75a8 8 0 0 1 5.06.92l.9.48h.01a87.41 87.41 0 0 1 7.8 4.36l.72.48.8.34a14.91 14.91 0 0 1 9.27 13.15 15.02 15.02 0 0 1-14.5 15.53 15.02 15.02 0 0 1-15.72-14.3 14.71 14.71 0 0 1 3.14-9.72l3.26-4.16Zm-10.2-10.54c-1.48 2.81-1.43 6.1-.15 9.15a23.7 23.7 0 0 0-5.04 15.65 24.02 24.02 0 0 0 25.07 22.9 24.02 24.02 0 0 0 23.13-24.88 23.91 23.91 0 0 0-14.82-21.1c-2.7-1.79-5.86-3.43-8.62-4.85l-.9-.47c-7.27-3.77-15.62-2.16-18.67 3.6Z" fill="#000"/>
    <path d="M130 222a1 1 0 0 0-1 1v48.35c0 5.61 2.87 10.68 7.27 12.82 4.4 2.15 9.46.96 12.83-3l48.8-57.52a1 1 0 0 0-.77-1.65h-30.68a1 1 0 0 0-.76.35l-11.38 13.41a1 1 0 0 1-1.76-.64V223a1 1 0 0 0-1-1H130Z" fill="#fff"/>
    <path d="M383.4 319.16c7.1-26.75 6.72-51.79 4.64-69.99-.2-1.76-.4-3.31-.6-4.7-9.17-5.12-19.77-8.42-32.21-9.47.14.67.24 1.2.3 1.41 1.02 4.35 1.81 8.36 2.7 16.17 1.8 15.7 2.05 36.77-3.82 58.88-5.77 21.72-17.5 40.22-28.14 53.5-4.6 5.75-8.9 10.4-12.27 13.81 9.33 5.57 19.35 9.6 29.67 12.13 1.93-2.2 3.95-4.6 6.02-7.19 12.18-15.2 26.5-37.42 33.71-64.55Z" fill="#8A594D"/>
  </g>
</svg>
