<svg width="312" height="312" viewBox="0 0 312 312" fill="none" xmlns="http://www.w3.org/2000/svg">
<g clip-path="url(#clip0_15:44)">
<rect width="312" height="312" rx="156" fill="#B9FF24"/>
<path d="M280 250.626C280 305.751 226.096 352.74 156.5 352.74C86.9041 352.74 33 305.751 33 250.626C33 195.501 86.9041 148.512 156.5 148.512C226.096 148.512 280 195.501 280 250.626Z" fill="black" stroke="black" stroke-width="16"/>
<ellipse cx="62.7664" cy="106.386" rx="25.936" ry="21.3858" fill="black"/>
<path d="M70.9568 96.3754C106.448 101.836 115.039 122.255 115.093 150.978" stroke="black" stroke-width="20"/>
<ellipse rx="25.936" ry="21.3858" transform="matrix(-1 0 0 1 248.414 111.846)" fill="black"/>
<path d="M240.223 101.836C204.732 107.296 196.141 127.715 196.087 156.438" stroke="black" stroke-width="20"/>
<circle cx="196.086" cy="181.464" r="14.5606" fill="white"/>
<circle cx="115.093" cy="181.464" r="14.5606" fill="white"/>
<path fill-rule="evenodd" clip-rule="evenodd" d="M96 246C95.4477 246 95 246.448 95 247V349.699C95 361.495 101.028 372.13 110.273 376.644C119.517 381.158 130.159 378.663 137.234 370.322L241.296 247.647C241.848 246.997 241.386 246 240.534 246H173.181C172.887 246 172.608 246.129 172.418 246.353L146.243 277.21C145.641 277.92 144.48 277.494 144.48 276.563V247C144.48 246.448 144.033 246 143.48 246H96Z" fill="#63CF58"/>
<path d="M110.273 376.644L107.64 382.036H107.64L110.273 376.644ZM137.234 370.322L141.81 374.203L137.234 370.322ZM172.418 246.353L176.993 250.234L172.418 246.353ZM241.296 247.647L245.872 251.528L241.296 247.647ZM146.243 277.21L141.668 273.328L146.243 277.21ZM101 349.699V247H89V349.699H101ZM112.905 371.252C106.07 367.915 101 359.618 101 349.699H89C89 363.372 95.9858 376.345 107.64 382.036L112.905 371.252ZM132.659 366.44C127.2 372.876 119.471 374.459 112.905 371.252L107.64 382.036C119.563 387.858 133.118 384.45 141.81 374.203L132.659 366.44ZM236.721 243.766L132.659 366.44L141.81 374.203L245.872 251.528L236.721 243.766ZM240.534 240H173.181V252H240.534V240ZM150.819 281.091L176.993 250.234L167.842 242.472L141.668 273.328L150.819 281.091ZM138.48 247V276.563H150.48V247H138.48ZM143.48 240H96V252H143.48V240ZM150.48 247C150.48 243.134 147.346 240 143.48 240V252C140.719 252 138.48 249.761 138.48 247H150.48ZM173.181 240C171.125 240 169.172 240.904 167.842 242.472L176.993 250.234C176.043 251.354 174.649 252 173.181 252V240ZM245.872 251.528C249.73 246.98 246.497 240 240.534 240V252C236.274 252 233.965 247.014 236.721 243.766L245.872 251.528ZM141.668 273.328C144.679 269.779 150.48 271.908 150.48 276.563H138.48C138.48 283.079 146.603 286.061 150.819 281.091L141.668 273.328ZM101 247C101 249.761 98.7614 252 96 252V240C92.134 240 89 243.134 89 247H101Z" fill="black"/>
<mask id="path-11-inside-1_15:44" fill="white">
<path fill-rule="evenodd" clip-rule="evenodd" d="M97.9377 269.186C101.391 263.011 102.302 256.072 99.8646 249.755C94.8693 236.81 77.7029 231.378 61.5223 237.622C60.8625 237.877 60.1888 238.136 59.5038 238.399C53.3615 240.759 46.3099 243.469 40.2002 246.606C21.729 251.932 7.06336 267.521 3.89366 287.766C-0.465914 315.61 18.5721 341.716 46.4162 346.076C74.2603 350.435 100.367 331.397 104.726 303.553C106.666 291.166 103.975 279.124 97.9377 269.186Z"/>
</mask>
<path fill-rule="evenodd" clip-rule="evenodd" d="M97.9377 269.186C101.391 263.011 102.302 256.072 99.8646 249.755C94.8693 236.81 77.7029 231.378 61.5223 237.622C60.8625 237.877 60.1888 238.136 59.5038 238.399C53.3615 240.759 46.3099 243.469 40.2002 246.606C21.729 251.932 7.06336 267.521 3.89366 287.766C-0.465914 315.61 18.5721 341.716 46.4162 346.076C74.2603 350.435 100.367 331.397 104.726 303.553C106.666 291.166 103.975 279.124 97.9377 269.186Z" fill="white"/>
<path d="M99.8646 249.755L108.261 246.514L99.8646 249.755ZM97.9377 269.186L90.0824 264.794L87.5211 269.374L90.2458 273.859L97.9377 269.186ZM61.5223 237.622L64.7625 246.019L64.7625 246.019L61.5223 237.622ZM59.5038 238.399L56.2757 229.998L56.2757 229.998L59.5038 238.399ZM40.2002 246.606L42.6937 255.254L43.5336 255.011L44.3113 254.612L40.2002 246.606ZM91.4681 252.995C92.7748 256.381 92.4735 260.518 90.0824 264.794L105.793 273.579C110.308 265.504 111.83 255.763 108.261 246.514L91.4681 252.995ZM64.7625 246.019C78.1511 240.852 88.8997 246.339 91.4681 252.995L108.261 246.514C100.839 227.281 77.2547 221.904 58.2821 229.226L64.7625 246.019ZM62.7318 246.8C63.4157 246.537 64.0955 246.276 64.7625 246.019L58.2821 229.226C57.6294 229.478 56.9619 229.734 56.2757 229.998L62.7318 246.8ZM44.3113 254.612C49.9129 251.736 56.4963 249.196 62.7318 246.8L56.2757 229.998C50.2267 232.322 42.7069 235.201 36.089 238.6L44.3113 254.612ZM12.7853 289.158C15.3939 272.497 27.4585 259.646 42.6937 255.254L37.7067 237.958C15.9995 244.217 -1.26717 262.545 -4.99802 286.374L12.7853 289.158ZM47.8084 337.184C24.875 333.593 9.19464 312.091 12.7853 289.158L-4.99802 286.374C-10.1265 319.129 12.2692 349.839 45.024 354.967L47.8084 337.184ZM95.8345 302.161C92.2438 325.094 70.7418 340.775 47.8084 337.184L45.024 354.967C77.7789 360.096 108.489 337.7 113.618 304.945L95.8345 302.161ZM90.2458 273.859C95.2205 282.048 97.433 291.952 95.8345 302.161L113.618 304.945C115.898 290.381 112.729 276.199 105.63 264.513L90.2458 273.859Z" fill="black" mask="url(#path-11-inside-1_15:44)"/>
<mask id="path-13-inside-2_15:44" fill="white">
<path fill-rule="evenodd" clip-rule="evenodd" d="M209.431 269.124C206.44 263.354 205.804 256.957 208.226 251.228C213.188 239.488 229.106 234.999 243.781 241.202C244.379 241.454 244.99 241.712 245.612 241.973C251.183 244.318 257.578 247.011 263.096 250.068C279.901 255.494 292.913 270.233 295.236 288.912C298.431 314.603 280.194 338.019 254.503 341.214C228.812 344.408 205.396 326.171 202.201 300.48C200.78 289.052 203.6 278.073 209.431 269.124Z"/>
</mask>
<path fill-rule="evenodd" clip-rule="evenodd" d="M209.431 269.124C206.44 263.354 205.804 256.957 208.226 251.228C213.188 239.488 229.106 234.999 243.781 241.202C244.379 241.454 244.99 241.712 245.612 241.973C251.183 244.318 257.578 247.011 263.096 250.068C279.901 255.494 292.913 270.233 295.236 288.912C298.431 314.603 280.194 338.019 254.503 341.214C228.812 344.408 205.396 326.171 202.201 300.48C200.78 289.052 203.6 278.073 209.431 269.124Z" fill="white"/>
<path d="M208.226 251.228L199.936 247.724L199.936 247.724L208.226 251.228ZM209.431 269.124L217.421 264.982L219.837 269.641L216.972 274.038L209.431 269.124ZM243.781 241.202L240.277 249.491L240.277 249.491L243.781 241.202ZM245.612 241.973L242.12 250.268L242.12 250.268L245.612 241.973ZM263.096 250.068L260.331 258.633L259.499 258.364L258.734 257.941L263.096 250.068ZM216.516 254.731C215.317 257.567 215.432 261.144 217.421 264.982L201.441 273.267C197.448 265.565 196.291 256.347 199.936 247.724L216.516 254.731ZM240.277 249.491C228.359 244.454 218.853 249.201 216.516 254.731L199.936 247.724C207.522 229.775 229.854 225.544 247.285 232.912L240.277 249.491ZM242.12 250.268C241.5 250.007 240.883 249.747 240.277 249.491L247.285 232.912C247.876 233.162 248.481 233.416 249.104 233.678L242.12 250.268ZM258.734 257.941C253.716 255.16 247.783 252.652 242.12 250.268L249.104 233.678C254.582 235.985 261.44 238.861 267.458 242.196L258.734 257.941ZM286.305 290.023C284.43 274.943 273.93 263.024 260.331 258.633L265.862 241.504C285.871 247.964 301.397 265.522 304.167 287.801L286.305 290.023ZM253.392 332.282C274.151 329.701 288.886 310.781 286.305 290.023L304.167 287.801C307.975 318.425 286.237 346.337 255.613 350.145L253.392 332.282ZM211.132 299.37C213.714 320.128 232.634 334.864 253.392 332.282L255.613 350.145C224.99 353.953 197.078 332.214 193.27 301.591L211.132 299.37ZM216.972 274.038C212.257 281.272 209.983 290.128 211.132 299.37L193.27 301.591C191.577 287.975 194.943 274.873 201.891 264.211L216.972 274.038Z" fill="black" mask="url(#path-13-inside-2_15:44)"/>
</g>
<defs>
<clipPath id="clip0_15:44">
<rect width="312" height="312" rx="156" fill="white"/>
</clipPath>
</defs>
</svg>
