<svg width="322" height="322" fill="none" xmlns="http://www.w3.org/2000/svg">
  <circle cx="161" cy="161" r="161" fill="#B9FF24"/>
  <mask id="a" style="mask-type:alpha" maskUnits="userSpaceOnUse" x="0" y="0" width="322" height="322">
    <circle cx="161" cy="161" r="161" fill="#B9FF24"/>
  </mask>
  <g mask="url(#a)">
    <path d="M284 252.63c0 55.12-53.9 102.11-123.5 102.11S37 307.75 37 252.63C37 197.5 90.9 150.5 160.5 150.5s123.5 47 123.5 102.12Z" fill="#000" stroke="#000" stroke-width="16"/>
    <ellipse cx="66.77" cy="108.39" rx="25.94" ry="21.39" fill="#000"/>
    <path d="M74.96 98.38c35.49 5.46 44.08 25.88 44.13 54.6" stroke="#000" stroke-width="20"/>
    <ellipse rx="25.94" ry="21.39" transform="matrix(-1 0 0 1 252.41 113.85)" fill="#000"/>
    <path d="M244.22 103.84c-35.49 5.46-44.08 25.88-44.13 54.6" stroke="#000" stroke-width="20"/>
    <circle cx="200.09" cy="183.46" r="14.56" fill="#fff"/>
    <circle cx="119.09" cy="183.46" r="14.56" fill="#fff"/>
    <path fill-rule="evenodd" clip-rule="evenodd" d="M100 248a1 1 0 0 0-1 1v102.7c0 11.8 6.03 22.43 15.27 26.94 9.25 4.52 19.89 2.02 26.96-6.32L245.3 249.65a1 1 0 0 0-.77-1.65h-67.35a1 1 0 0 0-.76.35l-26.18 30.86a1 1 0 0 1-1.76-.65V249a1 1 0 0 0-1-1H100Z" fill="#63CF58"/>
    <path d="m114.27 378.64-2.63 5.4 2.63-5.4Zm26.96-6.32 4.58 3.88-4.58-3.88Zm35.19-123.97 4.57 3.88-4.57-3.88Zm68.88 1.3 4.57 3.88-4.57-3.88Zm-95.06 29.56-4.57-3.88 4.57 3.88ZM105 351.7V249H93v102.7h12Zm11.9 21.55c-6.83-3.33-11.9-11.63-11.9-21.55H93c0 13.67 6.99 26.65 18.64 32.34l5.27-10.79Zm19.76-4.81c-5.46 6.44-13.19 8.02-19.75 4.81l-5.27 10.79c11.92 5.82 25.48 2.41 34.17-7.84l-9.15-7.76Zm104.06-122.67L136.66 368.44l9.15 7.76 104.06-122.67-9.15-7.76Zm3.81-3.77h-67.35v12h67.35v-12Zm-89.71 41.1 26.17-30.87-9.15-7.76-26.17 30.86 9.15 7.76ZM142.48 249v29.56h12V249h-12Zm5-7H100v12h47.48v-12Zm7 7a7 7 0 0 0-7-7v12a5 5 0 0 1-5-5h12Zm22.7-7a7 7 0 0 0-5.34 2.47l9.15 7.76a5 5 0 0 1-3.8 1.77v-12Zm72.7 11.53a7 7 0 0 0-5.35-11.53v12a5 5 0 0 1-3.8-8.23l9.14 7.76Zm-104.21 21.8a5 5 0 0 1 8.81 3.23h-12c0 6.52 8.12 9.5 12.34 4.53l-9.15-7.76ZM105 249a5 5 0 0 1-5 5v-12a7 7 0 0 0-7 7h12Z" fill="#000"/>
    <path fill-rule="evenodd" clip-rule="evenodd" d="M97.2 273.44c3.08-5.5 3.89-11.66 1.72-17.28-4.44-11.5-19.7-16.34-34.09-10.79l-1.8.7c-5.46 2.1-11.73 4.5-17.16 7.3a45.38 45.38 0 1 0 51.34 20.07Z" fill="#fff"/>
    <path fill-rule="evenodd" clip-rule="evenodd" d="m91.52 271.37 2.56-4.58c2.4-4.27 2.7-8.4 1.39-11.8-2.57-6.65-13.32-12.14-26.7-6.97l-3.23-8.36 3.22 8.36-2.02.78c-6.24 2.4-12.83 4.94-18.43 7.81l-.78.4-.84.24a42.04 42.04 0 1 0 47.56 18.6l-2.73-4.48Zm12.34-19.62c2.44 6.32 1.53 13.26-1.92 19.44A51.03 51.03 0 1 1 44.2 248.6c6.11-3.14 13.16-5.85 19.3-8.21l2.02-.78c16.18-6.24 33.35-.81 38.34 12.13Z" fill="#000"/>
    <path fill-rule="evenodd" clip-rule="evenodd" d="M216.29 272.6c-2.77-5.35-3.36-11.27-1.12-16.57 4.6-10.87 19.34-15.03 32.92-9.29l1.7.72c5.16 2.17 11.08 4.66 16.19 7.5a43.4 43.4 0 1 1-49.69 17.64Z" fill="#fff"/>
    <path fill-rule="evenodd" clip-rule="evenodd" d="m223.84 271.64-2.42-4.66c-1.99-3.84-2.1-7.41-.9-10.25 2.33-5.53 11.84-10.28 23.76-5.24l3.5-8.29c-14.67-6.2-30.6-1.71-35.55 10.03-2.43 5.73-1.79 12.12 1.2 17.9a46.88 46.88 0 1 0 53.66-19.06c-5.51-3.06-11.9-5.75-17.48-8.1l-3.49 8.3c5.66 2.38 11.6 4.89 16.61 7.67l.77.42.83.27a37.88 37.88 0 1 1-43.36 15.4l2.87-4.39Zm25.77-27.67-3.49 8.3-1.84-.78 3.5-8.29 1.83.77Z" fill="#000"/>
  </g>
</svg>
