<svg width="312" height="312" viewBox="0 0 312 312" fill="none" xmlns="http://www.w3.org/2000/svg">
<g clip-path="url(#clip0_15:25)">
<rect width="312" height="312" rx="156" fill="black"/>
<path d="M280 250.626C280 305.751 226.096 352.74 156.5 352.74C86.9041 352.74 33 305.751 33 250.626C33 195.501 86.9041 148.512 156.5 148.512C226.096 148.512 280 195.501 280 250.626Z" fill="white" stroke="white" stroke-width="16"/>
<ellipse cx="62.7664" cy="106.386" rx="25.936" ry="21.3858" fill="white"/>
<path d="M70.9567 96.3754C106.448 101.836 115.039 122.255 115.093 150.978" stroke="white" stroke-width="20"/>
<ellipse rx="25.936" ry="21.3858" transform="matrix(-1 0 0 1 248.414 111.846)" fill="white"/>
<path d="M240.223 101.836C204.732 107.296 196.141 127.715 196.087 156.438" stroke="white" stroke-width="20"/>
<circle cx="196.086" cy="181.464" r="14.5606" fill="black"/>
<circle cx="115.093" cy="181.464" r="14.5606" fill="black"/>
<path fill-rule="evenodd" clip-rule="evenodd" d="M96 246C95.4477 246 95 246.448 95 247V349.699C95 361.495 101.028 372.13 110.273 376.644C119.517 381.158 130.159 378.663 137.234 370.322L241.296 247.647C241.848 246.997 241.386 246 240.534 246H173.181C172.887 246 172.608 246.129 172.418 246.353L146.243 277.21C145.641 277.92 144.48 277.494 144.48 276.563V247C144.48 246.448 144.033 246 143.48 246H96Z" fill="#418F39"/>
<path d="M110.273 376.644L107.64 382.036L107.64 382.036L110.273 376.644ZM137.234 370.322L141.81 374.203L141.81 374.203L137.234 370.322ZM172.418 246.353L176.993 250.234L172.418 246.353ZM241.296 247.647L245.872 251.528L241.296 247.647ZM146.243 277.21L141.668 273.328L146.243 277.21ZM101 349.699V247H89V349.699H101ZM112.905 371.252C106.07 367.915 101 359.618 101 349.699H89C89 363.372 95.9858 376.345 107.64 382.036L112.905 371.252ZM132.659 366.44C127.2 372.876 119.471 374.459 112.905 371.252L107.64 382.036C119.563 387.858 133.118 384.45 141.81 374.203L132.659 366.44ZM236.721 243.766L132.659 366.44L141.81 374.203L245.872 251.528L236.721 243.766ZM240.534 240H173.181V252H240.534V240ZM150.819 281.091L176.993 250.234L167.842 242.472L141.668 273.328L150.819 281.091ZM138.48 247V276.563H150.48V247H138.48ZM143.48 240H96V252H143.48V240ZM150.48 247C150.48 243.134 147.346 240 143.48 240V252C140.719 252 138.48 249.761 138.48 247H150.48ZM173.181 240C171.125 240 169.172 240.904 167.842 242.472L176.993 250.234C176.043 251.354 174.649 252 173.181 252V240ZM245.872 251.528C249.73 246.98 246.498 240 240.534 240V252C236.274 252 233.965 247.014 236.721 243.766L245.872 251.528ZM141.668 273.328C144.679 269.779 150.48 271.908 150.48 276.563H138.48C138.48 283.079 146.603 286.061 150.819 281.091L141.668 273.328ZM101 247C101 249.761 98.7614 252 96 252V240C92.134 240 89 243.134 89 247H101Z" fill="black"/>
<mask id="path-11-inside-1_15:25" fill="white">
<path fill-rule="evenodd" clip-rule="evenodd" d="M94.8238 253.654C95.5551 246.617 93.6497 239.882 88.9135 235.043C79.2087 225.127 61.2932 226.922 48.898 239.053C48.3926 239.548 47.876 240.052 47.3508 240.564C42.6415 245.16 37.235 250.436 32.8628 255.733C18.0007 267.926 10.691 288.042 15.781 307.891C22.7817 335.191 50.588 351.647 77.888 344.646C105.188 337.646 121.644 309.839 114.643 282.539C111.529 270.395 104.297 260.396 94.8238 253.654Z"/>
</mask>
<path fill-rule="evenodd" clip-rule="evenodd" d="M94.8238 253.654C95.5551 246.617 93.6497 239.882 88.9135 235.043C79.2087 225.127 61.2932 226.922 48.898 239.053C48.3926 239.548 47.876 240.052 47.3508 240.564C42.6415 245.16 37.235 250.436 32.8628 255.733C18.0007 267.926 10.691 288.042 15.781 307.891C22.7817 335.191 50.588 351.647 77.888 344.646C105.188 337.646 121.644 309.839 114.643 282.539C111.529 270.395 104.297 260.396 94.8238 253.654Z" fill="white"/>
<path d="M88.9135 235.043L95.3456 228.748L95.3456 228.748L88.9135 235.043ZM94.8238 253.654L85.872 252.724L85.3297 257.943L89.6051 260.986L94.8238 253.654ZM48.898 239.053L55.1931 245.485L55.1931 245.485L48.898 239.053ZM47.3508 240.564L41.0651 234.123L41.0651 234.123L47.3508 240.564ZM32.8628 255.733L38.5712 262.691L39.2471 262.136L39.8036 261.462L32.8628 255.733ZM82.4814 241.338C85.0201 243.932 86.3784 247.851 85.872 252.724L103.776 254.584C104.732 245.382 102.279 235.832 95.3456 228.748L82.4814 241.338ZM55.1931 245.485C65.4494 235.447 77.4915 236.239 82.4814 241.338L95.3456 228.748C80.926 214.014 57.137 218.397 42.603 232.621L55.1931 245.485ZM53.6366 247.006C54.1609 246.494 54.6822 245.985 55.1931 245.485L42.603 232.621C42.103 233.11 41.5912 233.61 41.0651 234.123L53.6366 247.006ZM39.8036 261.462C43.8122 256.606 48.8558 251.671 53.6366 247.006L41.0651 234.123C36.4273 238.649 30.6578 244.266 25.922 250.003L39.8036 261.462ZM24.4989 305.656C20.31 289.321 26.3129 272.748 38.5712 262.691L27.1543 248.775C9.68861 263.104 1.07195 286.764 7.06306 310.127L24.4989 305.656ZM75.6524 335.928C53.1671 341.694 30.2649 328.141 24.4989 305.656L7.06306 310.127C15.2985 342.242 48.0088 361.6 80.1236 353.364L75.6524 335.928ZM105.925 284.775C111.691 307.26 98.1376 330.162 75.6524 335.928L80.1236 353.364C112.238 345.129 131.596 312.419 123.361 280.304L105.925 284.775ZM89.6051 260.986C97.4114 266.542 103.358 274.765 105.925 284.775L123.361 280.304C119.699 266.024 111.182 254.25 100.043 246.321L89.6051 260.986Z" fill="black" mask="url(#path-11-inside-1_15:25)"/>
<mask id="path-13-inside-2_15:25" fill="white">
<path fill-rule="evenodd" clip-rule="evenodd" d="M219.849 252.995C219.178 246.531 220.928 240.345 225.279 235.899C234.193 226.791 250.65 228.44 262.036 239.583C262.5 240.038 262.975 240.501 263.457 240.971C267.783 245.193 272.749 250.039 276.766 254.905C290.418 266.105 297.132 284.584 292.457 302.817C286.026 327.894 260.484 343.01 235.406 336.579C210.329 330.149 195.213 304.606 201.644 279.529C204.505 268.373 211.148 259.188 219.849 252.995Z"/>
</mask>
<path fill-rule="evenodd" clip-rule="evenodd" d="M219.849 252.995C219.178 246.531 220.928 240.345 225.279 235.899C234.193 226.791 250.65 228.44 262.036 239.583C262.5 240.038 262.975 240.501 263.457 240.971C267.783 245.193 272.749 250.039 276.766 254.905C290.418 266.105 297.132 284.584 292.457 302.817C286.026 327.894 260.484 343.01 235.406 336.579C210.329 330.149 195.213 304.606 201.644 279.529C204.505 268.373 211.148 259.188 219.849 252.995Z" fill="white"/>
<path d="M225.279 235.899L218.846 229.604L218.846 229.604L225.279 235.899ZM219.849 252.995L228.801 252.065L229.344 257.285L225.068 260.328L219.849 252.995ZM262.036 239.583L255.741 246.015L255.741 246.015L262.036 239.583ZM263.457 240.971L257.172 247.413L257.172 247.413L263.457 240.971ZM276.766 254.905L271.057 261.863L270.381 261.308L269.825 260.634L276.766 254.905ZM231.711 242.194C229.558 244.394 228.354 247.765 228.801 252.065L210.898 253.925C210.001 245.297 212.298 236.295 218.846 229.604L231.711 242.194ZM255.741 246.015C246.494 236.965 235.91 237.903 231.711 242.194L218.846 229.604C232.476 215.678 254.806 219.915 268.331 233.151L255.741 246.015ZM257.172 247.413C256.69 246.943 256.211 246.475 255.741 246.015L268.331 233.151C268.79 233.6 269.26 234.059 269.743 234.53L257.172 247.413ZM269.825 260.634C266.172 256.209 261.569 251.704 257.172 247.413L269.743 234.53C273.997 238.682 279.327 243.869 283.706 249.175L269.825 260.634ZM283.739 300.581C287.513 285.862 282.106 270.927 271.057 261.863L282.474 247.947C298.73 261.283 306.752 283.305 301.175 305.052L283.739 300.581ZM237.642 327.861C257.905 333.057 278.543 320.844 283.739 300.581L301.175 305.052C293.509 334.944 263.063 352.963 233.171 345.297L237.642 327.861ZM210.362 281.765C205.166 302.027 217.38 322.665 237.642 327.861L233.171 345.297C203.279 337.632 185.261 307.185 192.926 277.293L210.362 281.765ZM225.068 260.328C218.033 265.335 212.675 272.743 210.362 281.765L192.926 277.293C196.334 264.003 204.262 253.042 214.631 245.663L225.068 260.328Z" fill="black" mask="url(#path-13-inside-2_15:25)"/>
</g>
<defs>
<clipPath id="clip0_15:25">
<rect width="312" height="312" rx="156" fill="white"/>
</clipPath>
</defs>
</svg>
