<svg width="322" height="322" fill="none" xmlns="http://www.w3.org/2000/svg">
  <circle cx="161" cy="161" r="161" fill="#000"/>
  <mask id="a" style="mask-type:alpha" maskUnits="userSpaceOnUse" x="0" y="0" width="322" height="322">
    <circle cx="161" cy="161" r="161" fill="#000"/>
  </mask>
  <g mask="url(#a)">
    <path d="M288 252.63c0 55.12-53.9 102.11-123.5 102.11S41 307.75 41 252.63C41 197.5 94.9 150.5 164.5 150.5s123.5 47 123.5 102.12Z" fill="#fff" stroke="#fff" stroke-width="16"/>
    <ellipse cx="70.77" cy="108.39" rx="25.94" ry="21.39" fill="#fff"/>
    <path d="M78.96 98.38c35.49 5.46 44.08 25.88 44.13 54.6" stroke="#fff" stroke-width="20"/>
    <ellipse rx="25.94" ry="21.39" transform="matrix(-1 0 0 1 256.41 113.85)" fill="#fff"/>
    <path d="M248.22 103.84c-35.49 5.46-44.08 25.88-44.13 54.6" stroke="#fff" stroke-width="20"/>
    <circle cx="204.09" cy="183.46" r="14.56" fill="#000"/>
    <circle cx="123.09" cy="183.46" r="14.56" fill="#000"/>
    <path fill-rule="evenodd" clip-rule="evenodd" d="M104 248a1 1 0 0 0-1 1v102.7c0 11.8 6.03 22.43 15.27 26.94 9.25 4.52 19.89 2.02 26.96-6.32L249.3 249.65a1 1 0 0 0-.77-1.65h-67.35a1 1 0 0 0-.76.35l-26.18 30.86a1 1 0 0 1-1.76-.65V249a1 1 0 0 0-1-1H104Z" fill="#418F39"/>
    <path d="m118.27 378.64-2.63 5.4 2.63-5.4Zm26.96-6.32 4.58 3.88-4.58-3.88Zm35.19-123.97 4.57 3.88-4.57-3.88Zm68.88 1.3 4.57 3.88-4.57-3.88Zm-95.06 29.56-4.57-3.88 4.57 3.88ZM109 351.7V249H97v102.7h12Zm11.9 21.55c-6.83-3.33-11.9-11.63-11.9-21.55H97c0 13.67 6.99 26.65 18.64 32.34l5.27-10.79Zm19.76-4.81c-5.46 6.44-13.19 8.02-19.75 4.81l-5.27 10.79c11.92 5.82 25.48 2.41 34.17-7.84l-9.15-7.76Zm104.06-122.67L140.66 368.44l9.15 7.76 104.06-122.67-9.15-7.76Zm3.81-3.77h-67.35v12h67.35v-12Zm-89.71 41.1 26.17-30.87-9.15-7.76-26.17 30.86 9.15 7.76ZM146.48 249v29.56h12V249h-12Zm5-7H104v12h47.48v-12Zm7 7a7 7 0 0 0-7-7v12a5 5 0 0 1-5-5h12Zm22.7-7a7 7 0 0 0-5.34 2.47l9.15 7.76a5 5 0 0 1-3.8 1.77v-12Zm72.7 11.53a7 7 0 0 0-5.35-11.53v12a5 5 0 0 1-3.8-8.23l9.14 7.76Zm-104.21 21.8a5 5 0 0 1 8.81 3.23h-12c0 6.52 8.12 9.5 12.34 4.53l-9.15-7.76ZM109 249a5 5 0 0 1-5 5v-12a7 7 0 0 0-7 7h12Z" fill="#000"/>
    <path fill-rule="evenodd" clip-rule="evenodd" d="M100.93 257.81c.69-6.61-1.1-12.94-5.55-17.48-9.12-9.32-25.94-7.63-37.59 3.77l-1.45 1.41c-4.42 4.32-9.5 9.28-13.6 14.25a47.94 47.94 0 1 0 58.2-1.95Z" fill="#fff"/>
    <path fill-rule="evenodd" clip-rule="evenodd" d="m93.33 259.94.54-5.22c.5-4.87-.85-8.79-3.39-11.38-4.99-5.1-17.03-5.9-27.29 4.15l-6.26-6.4 6.26 6.4-1.55 1.51c-4.78 4.67-9.83 9.6-13.84 14.46l-.55.68-.68.55a42.04 42.04 0 1 0 51.04-1.7l-4.28-3.05Zm3.58-22.9c4.74 4.84 6.65 11.58 5.91 18.61a51.03 51.03 0 1 1-61.96 2.08c4.38-5.3 9.78-10.57 14.5-15.17l1.54-1.5c12.4-12.14 30.3-13.93 40.01-4.02Z" fill="#000"/>
    <path fill-rule="evenodd" clip-rule="evenodd" d="M229.82 257.24c-.63-6.02 1-11.78 5.05-15.93 8.3-8.48 23.63-6.94 34.23 3.44l1.33 1.29c4.03 3.93 8.65 8.44 12.4 12.97a43.66 43.66 0 1 1-53.01-1.77Z" fill="#fff"/>
    <path fill-rule="evenodd" clip-rule="evenodd" d="m237.34 259.29-.54-5.23c-.45-4.3.76-7.67 2.91-9.87 4.2-4.29 14.78-5.22 24.03 3.82l6.3-6.43c-11.39-11.14-27.85-12.79-36.76-3.68-4.35 4.44-6.1 10.63-5.43 17.1a46.87 46.87 0 1 0 56.92 1.91c-4.02-4.87-8.99-9.72-13.31-13.94l-6.29 6.44c4.4 4.3 9 8.8 12.65 13.22l.56.68.68.55a37.88 37.88 0 1 1-46-1.53l4.28-3.04Zm34.12-16.32-6.29 6.44-1.43-1.4 6.3-6.43 1.42 1.4Z" fill="#000"/>
  </g>
</svg>
